<svg width="822" height="192" viewBox="0 0 822 192" fill="none" xmlns="http://www.w3.org/2000/svg">
<path d="M150.236 106.984C149.253 107.317 148.909 108.885 149.71 109.556C152.815 112.16 154.098 105.678 150.236 106.984ZM71.7217 106.764C71.285 107.118 71.0953 107.733 71.1651 108.275C71.2676 109.075 71.92 109.607 72.5263 109.791C73.298 110.025 74.2882 109.785 74.7197 109.047C74.9606 108.635 75.0052 108.106 74.832 107.667C74.403 106.582 72.6293 106.028 71.7217 106.764ZM127.565 106.924C128.277 106.177 128.017 104.575 126.973 104.037C125.951 103.51 124.56 104.201 124.315 105.144C124.141 105.818 124.603 106.417 124.682 106.515C125.343 107.341 126.846 107.678 127.565 106.924ZM99.4099 103.919C98.9814 103.49 98.39 103.465 98.1988 103.465C98.0508 103.459 97.5148 103.456 97.0596 103.84C96.4384 104.366 96.4953 105.17 96.5061 105.316C96.5153 105.447 96.5743 106.283 97.2744 106.714C97.9149 107.108 98.7606 106.962 99.2787 106.506C100.026 105.848 100.062 104.572 99.4099 103.919ZM137.987 101.734C131.526 102.807 134.348 113.943 140.453 110.812C144.908 108.527 142.571 100.972 137.987 101.734ZM84.0134 101.747C77.6502 103.319 81.2428 114.326 87.1683 110.629C91.7388 107.778 88.4967 100.64 84.0134 101.747ZM107.952 108.103C112.378 113.103 119.842 105.128 114.418 100.979C109.593 97.2878 104.316 103.995 107.952 108.103ZM82.3601 98.1458C80.9328 93.8545 78.7132 87.5106 73.0834 87.858C72.0922 87.919 67.1819 89.8118 66.5546 90.4611C64.3258 92.768 64.8377 98.5646 67.2972 100.736L82.3601 98.1458ZM141.602 90.2516C142.164 90.0896 142.511 88.759 142.01 87.8959C141.966 87.8206 141.512 87.0637 140.838 87.1364C140.349 87.1898 139.994 87.6515 139.892 88.0472C139.623 89.0953 140.936 90.4437 141.602 90.2516ZM82.7947 87.1821C81.2807 86.1217 79.9176 89.6822 82.5846 90.2403C83.6521 89.9379 83.0494 87.3609 82.7947 87.1821ZM111.192 85.0336C109.367 85.4902 109.488 88.9605 112.361 88.0016C113.913 87.484 112.875 84.6128 111.192 85.0336ZM123.057 84.6534C121.914 84.846 117.704 86.667 117.231 87.6223L117.217 95.9677L131.948 97.07C133.787 93.3154 139.13 89.4474 134.116 86.113C131.384 84.2966 130.968 85.4963 128.723 85.275C126.637 85.0699 125.6 84.2243 123.057 84.6534ZM106.499 96.393V88.2768C104.041 85.8101 100.652 84.2412 97.0621 84.5442C95.1731 84.7029 94.2732 84.8793 92.2354 84.95C90.105 85.0233 86.4078 87.4466 86.2695 89.5899C86.13 91.7511 89.4132 95.2788 90.5564 97.2197L106.499 96.393ZM54.7174 84.5497C54.2291 85.7111 55.5317 88.8842 56.9135 88.2998C58.5689 87.6002 56.9028 83.6349 54.7174 84.5497ZM168.813 84.1111C166.741 83.2115 164.754 87.7109 166.411 88.059C167.95 88.3819 169.298 85.4738 168.813 84.1111ZM143.741 75.8328C141.594 74.4808 139.544 78.4206 141.473 79.7496C143.754 81.3204 144.8 76.5002 143.741 75.8328ZM81.8112 75.8893C79.7023 73.404 78.0357 78.3601 79.7039 79.5276C82.133 81.2292 83.0777 77.3817 81.8112 75.8893ZM110.074 73.6449C109.153 74.4465 109.35 76.0014 109.977 76.9019C110.087 77.0599 110.652 77.8711 111.468 77.8834C112.797 77.9039 114.298 75.799 113.618 74.4116C113.066 73.2841 111.125 72.731 110.074 73.6449ZM137.655 84.1065C136.168 79.2477 136.993 75.5417 139.49 71.2447C140.025 70.3253 141.733 68.7591 141.961 67.9958C142.131 67.426 141.617 62.8785 141.416 62.5827C140.615 61.4003 134.984 62.9441 133.482 63.045C128.407 63.3874 124.535 62.0158 119.872 61.7375C118.365 61.6479 116.992 61.3834 117.01 63.25C117.023 64.6579 117.315 67.9447 117.507 69.3745C117.727 71.01 118.869 72.7695 119.119 74.342C119.607 77.417 118.886 79.9166 117.031 82.3495C121.683 81.1211 126.175 79.3616 129.099 84.5389C129.949 82.1245 132.161 81.4669 134.603 82.1189L137.655 84.1065ZM106.058 83.2295C105.784 81.5048 104.412 80.1349 104.059 78.4314C103.251 74.5208 104.448 71.7086 106.478 68.5141L106.519 61.938C102.444 61.0462 98.472 62.8287 94.4485 63.0686C89.8436 63.3433 85.6181 62.2613 81.0665 62.1962L80.2327 67.1211C83.727 70.68 86.9269 75.5514 86.2746 80.7848C86.1198 82.0256 85.2065 83.1819 85.4387 84.5477C87.3318 81.7653 92.361 79.6024 93.3393 84.1085C94.9543 84.4668 94.9763 82.9697 95.9823 82.1506C97.8719 80.6132 100.91 80.7955 103.092 81.5921C104.404 82.0707 104.819 83.0363 106.058 83.2295ZM166.904 62.3285C161.374 56.2936 153.455 58.4103 146.903 61.0693C147.539 62.3874 148.04 64.0131 148.185 65.4677C148.629 69.9383 148.566 78.5077 146.883 82.5843C146.375 83.8148 145.302 84.5929 145.121 85.8638C149.353 82.6345 152.423 84.2264 153.894 88.9308C146.09 86.1534 143.444 90.5022 141.09 96.9845C140.94 97.397 140.435 97.4841 141.165 97.9306C143.551 99.3919 151.979 98.9274 155.042 100.769C156.842 101.445 158.053 97.9045 158.253 96.5868C158.751 93.3092 157.72 89.8252 154.336 88.7186C155.361 86.7798 157.214 85.9961 159.15 87.4106C160.372 88.3029 159.983 89.9553 161.352 89.8139C161.534 86.8556 163.427 83.3029 165.458 81.1923C166.405 80.2083 170.268 77.9464 170.485 77.2243C170.972 71.9475 170.645 66.4102 166.904 62.3285ZM75.3424 60.4203C67.6236 59.0402 60.7582 55.5642 54.9722 63.0885C52.7771 65.9433 50.3335 73.9581 52.0904 77.1885C52.3732 77.7076 56.7028 80.2744 57.7411 81.3034C59.2618 82.8108 60.7275 85.1884 61.5147 87.181C61.7736 87.836 61.9339 90.0086 62.1815 90.2495C63.041 91.0843 63.3136 88.5392 63.7236 88.0682C66.0462 85.3974 69.5609 89.0404 70.0729 88.4982C69.8408 84.6943 73.4523 82.9405 76.6529 84.9865C74.7439 76.8158 72.436 68.6903 75.3424 60.4203ZM138.971 58.2329C136.685 56.9184 135.072 55.8328 132.228 56.0655C130.267 56.2264 124.082 57.5666 124.584 60.1415C124.89 61.7093 129.434 60.9585 130.8 60.8027C132.291 60.6325 137.08 59.9248 138.216 59.4414C138.82 59.1847 139.104 58.9295 138.971 58.2329ZM87.9515 56.1368C86.7712 56.3279 84.3352 57.4545 83.6726 58.4395C83.3651 58.8961 82.989 58.7792 83.6711 59.3287C87.724 59.974 92.0945 61.1245 96.1883 61.2896C101.849 61.5177 100.691 59.5097 96.5112 57.8992C94.1276 56.9808 90.4422 55.7334 87.9515 56.1368ZM171.446 99.4615C170.029 99.503 170.451 97.9747 168.837 97.4693C164.046 95.9702 164.408 99.4077 162.645 100.537C160.618 101.836 158.579 100.507 159.692 105.296C160.161 107.311 162.062 107.168 161.804 110.644C161.497 114.763 157.944 114.378 158.717 118.329C155.256 116.547 151.311 115.567 147.472 114.879C131.544 112.022 112.758 112.23 96.6198 113.06C86.0311 113.603 74.5594 113.86 64.8132 118.328C64.681 113.742 61.2923 113.728 62.3705 108.651C62.6504 107.334 63.7236 106.152 63.9075 104.919C64.6614 99.8659 62.2568 101.856 59.9997 100.541C58.1866 99.4841 57.7903 95.5049 53.7099 98.1294C53.0985 98.5226 53.2015 99.7111 52.0842 99.462C52.0632 97.9583 51.5784 96.6022 52.3861 95.203C53.0677 94.0222 54.8778 94.1021 54.7308 93.1231C54.5929 92.2084 51.8059 88.1118 51.1279 86.5983C41.2761 64.6154 54.4089 49.0701 77.3043 57.7947C82.2453 53.9467 87.3605 51.5624 93.692 53.2594C95.8834 53.8468 98.4972 55.7887 100.564 56.0419C104.668 56.5436 117.549 56.5524 121.601 55.9932C123.512 55.7292 125.74 54.3034 127.658 53.713C134.73 51.5384 139.297 53.3205 144.905 57.7881C152.806 55.8881 160.402 52.89 167.642 58.3001C173.692 62.8205 175.255 68.6868 174.512 75.9866C173.874 82.2583 172.329 88.7345 167.507 93.1027C171.471 94.4532 171.854 95.1579 171.446 99.4615Z" fill="#966B28"/>
<path d="M146.853 133.271C138.943 131.411 130.65 131.381 122.521 131.047C110.205 130.541 96.6424 130.513 84.3424 131.934C81.9219 132.214 78.5748 132.455 76.6662 133.903C76.6662 135.355 89.2051 136.619 90.9239 136.75C104.935 137.824 129.037 138.259 142.668 135.842C144.099 135.588 145.429 134.836 146.844 134.528L146.853 133.271ZM65.7357 134.073L65.7352 132.855C66.5572 131.589 79.8278 129.553 82.1464 129.3C96.4364 127.744 114.658 127.827 129.117 128.401C134.485 128.614 152.329 129.928 156.401 132.274C160.537 134.656 150.229 136.455 148.795 136.703C130.044 139.954 100.312 139.689 81.27 137.627C76.147 137.073 70.4065 136.184 65.7357 134.073Z" fill="#966B28"/>
<path d="M117.47 20.4956L113.086 29.7082L121.858 25.3215C121.88 28.7217 121.902 32.1217 121.924 35.5217C118.831 34.0231 115.738 32.525 112.645 31.0269C113.053 32.1355 113.562 33.3343 114.203 34.5889C115.336 36.8081 116.589 38.6327 117.744 40.082C116.922 40.0601 116.101 40.0375 115.278 40.0155C117.317 42.596 118.893 44.1633 117.118 47.5638C116.458 48.8283 114.987 49.3386 114.839 50.7645H120.544L120.35 54.3045L103.928 54.6535C101.929 49.594 105.521 50.8491 109.129 50.7645C109.097 49.3367 107.318 48.7831 106.83 47.5838C105.669 44.7276 106.936 41.9718 108.693 39.8033C107.869 39.7868 107.046 39.7705 106.222 39.754C107.209 38.4569 108.303 36.7911 109.28 34.7472C109.999 33.2435 110.513 31.8326 110.885 30.5882L102.112 34.9703C102.112 31.462 102.112 27.9538 102.112 24.4462L111.324 29.268L106.938 20.4956H117.47Z" fill="#966B28"/>
<path d="M155.744 125.389C154.987 125.768 153.853 125.08 153.834 124.406C153.824 124.029 154.163 123.705 154.449 123.563C155.142 123.218 156.211 123.594 156.35 124.273C156.437 124.703 156.137 125.192 155.744 125.389ZM151.639 125.287C150.017 126.321 147.354 123.82 149.5 122.482C151.56 121.197 152.885 124.493 151.639 125.287ZM143.855 124.418C142.522 123.578 144.544 119.704 146.473 122.024C147.892 123.732 144.989 125.131 143.855 124.418ZM138.064 120.711L140.092 120.939L140.222 123.526C137.704 124.953 136.96 122.827 138.064 120.711ZM133.516 122.745L131.119 123.105L130.819 120.501L133.709 120.082L133.516 122.745ZM126.715 122.525C124.391 124.16 123.238 120.525 124.552 119.707C126.485 118.504 128.203 121.477 126.715 122.525ZM117.969 122.654C116.655 121.835 117.809 118.201 120.132 119.836C121.621 120.884 119.902 123.857 117.969 122.654ZM110.968 121.527C110.345 119.396 112.098 118.439 113.407 119.757C115.348 121.713 111.745 124.19 110.968 121.527ZM106.436 122.653C103.735 124.371 102.505 118.753 105.753 119.715C107.065 120.103 107.168 122.188 106.436 122.653ZM99.8481 122.65C98.2593 123.634 95.8439 121.989 97.2374 120.273C99.068 118.018 101.462 121.65 99.8481 122.65ZM91.4452 123.085C90.1834 122.717 89.6756 120.572 90.9819 120.14C94.148 119.093 94.2076 123.89 91.4452 123.085ZM84.0913 123.401C82.8957 121.421 83.9453 119.998 86.2551 120.582L86.7517 123.593L84.0913 123.401ZM77.722 124.064C76.7965 122.484 78.8511 120.609 80.1999 121.587L80.6083 124.472L77.722 124.064ZM72.308 125.31L72.4616 122.689L74.9212 122.478L75.6033 124.924C74.6081 125.735 73.4636 125.611 72.308 125.31ZM70.3333 126.265L67.9066 126.637L67.9158 123.63C70.2318 123.179 72.0476 124.027 70.3333 126.265ZM157.546 125.562C157.683 125.434 157.868 125.23 158.058 124.906C158.966 122.448 159.172 121.037 156.529 119.862C150.504 117.186 133.917 115.97 126.923 115.679C111.94 115.053 80.5632 114.766 67.0112 119.885C65.4999 120.455 64.8398 120.655 64.7896 122.506C64.7152 125.201 66.2876 124.718 66.5761 126.013C67.0128 127.965 65.5219 127.526 65.2821 128.255C65.009 129.084 65.7639 130.169 65.6895 131.052C70.1519 129.435 74.7951 128.557 79.5147 127.985C96.1864 125.966 117.942 126.023 134.799 127.108C142.405 127.597 150.606 128.773 157.84 131.05L157.033 126.22C157.091 126.106 157.187 125.941 157.338 125.769C157.426 125.669 157.495 125.609 157.546 125.562Z" fill="#966B28"/>
<path d="M31.9507 115.259C30.2948 116.657 28.6409 118.23 27.4017 120.008C26.1999 121.77 25.3076 123.784 24.9489 126.154C24.3975 129.156 25.16 132.221 25.8351 135.366C25.957 135.924 26.0779 136.523 25.9139 137.014C25.6684 137.752 24.8341 137.977 24.0782 137.737C23.3227 137.498 22.6274 136.907 21.9518 136.333C18.0917 133.277 14.6656 129.887 10.8173 126.593C7.43063 123.109 3.47771 119.718 0.142483 116.064C1.04343 116.928 1.76136 119.36 2.8982 121.746C3.93954 124.162 4.93377 126.684 5.61128 127.943C6.71677 129.888 8.06511 131.702 9.34024 133.49C9.99165 134.377 10.6522 135.247 11.3241 136.093C11.994 136.939 12.8103 137.688 13.5617 138.451C14.7066 139.572 16.1381 140.928 17.6884 142.217C19.1899 143.541 21.1297 144.578 22.8277 145.401C26.3163 147.01 29.4789 147.2 31.1891 144.428C32.3274 142.605 32.5083 140.133 32.3201 137.823C32.2249 136.666 32.0419 135.523 31.8553 134.398C31.7334 133.228 31.6478 132.048 31.6201 130.908C31.5894 129.329 31.7103 127.799 31.899 126.315C32.0706 124.842 32.5354 123.295 32.8548 121.858C33.2038 120.404 33.5334 118.991 33.7542 117.606C33.9607 116.226 34.3123 114.768 34.3369 113.367C33.5385 113.972 32.7363 114.599 31.9507 115.259Z" fill="#966B28"/>
<path d="M23.9685 107.029C21.7176 108.522 19.6077 110.356 18.6083 113.228C17.9042 115.037 18.105 116.972 18.0881 118.97C18.0938 119.323 18.0938 119.698 17.9313 119.971C17.6878 120.381 17.1456 120.405 16.713 120.165C16.2795 119.925 15.9295 119.486 15.5886 119.061C14.6856 117.888 13.6176 116.766 12.7474 115.582C11.8664 114.402 10.9495 113.232 9.99834 112.072C9.04767 110.913 8.06367 109.763 7.04884 108.623C6.14487 107.462 5.22083 106.309 4.25979 105.17C4.72726 105.725 5.11469 107.162 5.45135 108.657C5.88037 110.135 6.33747 111.659 6.65275 112.44C7.71874 114.858 8.63203 117.282 10.211 119.344C11.3077 120.904 12.9764 123.148 14.7261 124.591C16.5947 125.996 18.5719 126.56 20.0043 125.197C20.9812 124.288 21.3358 122.886 21.6069 121.424C21.8883 119.956 21.9488 118.447 22.186 117.02C22.7103 113.109 25.1826 109.742 25.5644 106.027C25.0329 106.348 24.497 106.679 23.9685 107.029Z" fill="#966B28"/>
<path d="M57.0012 144.27C56.1985 146.696 55.5687 149.221 55.3959 151.832C55.2617 154.383 55.6769 156.891 56.8248 159.475C58.188 162.806 60.9816 165.242 63.6733 167.981C64.1479 168.479 64.684 168.937 64.8659 169.493C65.1356 170.338 64.4632 171.136 63.5406 171.45C62.6151 171.776 61.5664 171.585 60.5179 171.467C49.0379 170.205 37.1371 168.023 25.4783 164.767C26.9287 165.13 29.4062 166.973 31.8948 168.944C34.5019 170.772 37.2033 172.648 38.7126 173.496L40.491 174.463L42.3601 175.271C43.6065 175.798 44.8529 176.301 46.0961 176.779C47.3411 177.253 48.5762 177.713 49.8185 178.117C51.1038 178.444 52.3835 178.74 53.654 179.001C55.5554 179.363 57.8489 179.887 60.2981 180.051C62.7729 180.157 65.3133 180.109 67.5489 179.768C69.7664 179.492 71.7703 178.621 73.1079 177.514C74.4559 176.389 75.1692 174.913 75.0431 173.024C74.8832 170.499 73.2915 168.271 71.6217 166.002C70.7684 164.913 69.8475 163.898 68.9372 162.904C68.0204 161.927 67.1251 160.945 66.3922 159.783C64.3288 156.67 62.9338 153.542 61.8893 150.138C61.3338 148.494 60.7936 146.911 60.1699 145.433C59.6303 143.827 59.0219 142.308 58.2204 140.927C57.7935 142.017 57.3784 143.133 57.0012 144.27Z" fill="#966B28"/>
<path d="M44.123 141.119C42.6399 144.063 41.6374 147.152 42.4723 150.564C42.9919 152.678 44.0939 154.846 45.4509 156.707C45.6821 157.05 45.9224 157.421 45.9337 157.792C45.9511 158.35 45.4218 158.716 44.8314 158.753C44.2415 158.79 43.606 158.576 42.9889 158.37C41.2541 157.862 39.71 157.115 38.0284 156.523C36.37 155.904 34.6777 155.314 32.9562 154.75C29.7039 153.431 26.3142 152.22 22.885 151.06C24.525 151.648 28.2408 155.858 29.7956 157.139C32.3669 158.989 35.0672 160.629 37.7481 161.998C39.838 162.905 43.0053 164.061 45.6918 164.393C48.384 164.747 50.7845 163.94 51.3118 161.705C51.6871 160.202 51.1679 158.554 50.5467 156.889C49.8933 155.267 48.997 153.749 48.3348 152.204C47.3626 150.143 47.1417 147.683 46.7378 145.515C46.3647 143.306 45.9199 141.245 45.1788 139.121C44.819 139.773 44.4614 140.438 44.123 141.119Z" fill="#966B28"/>
<path d="M26.7104 80.5157C24.7594 80.9232 22.7538 81.4701 20.956 82.3562C19.2187 83.2495 17.6207 84.476 16.2954 86.2165C15.4717 87.2969 14.7882 88.5341 14.1736 89.8502C13.6673 91.1669 13.2798 92.5609 12.8652 93.9617C12.7197 94.4599 12.5562 94.9893 12.2097 95.3034C11.69 95.7765 10.9187 95.5756 10.415 95.0441C9.9107 94.5131 9.60934 93.7321 9.31571 92.975C8.90768 91.9423 8.49571 90.9014 8.08007 89.8513C7.73869 88.8108 7.39534 87.7612 7.04831 86.7024C6.33957 84.5948 5.55539 82.4664 4.76924 80.322C4.145 78.1924 3.47312 76.0409 2.75979 73.8699C2.39689 72.789 2.03045 71.6988 1.66047 70.5989C1.31554 69.5103 1.05157 68.4346 0.728159 67.3451C1.11008 69.4181 0.0640255 76.5421 0 79.1196C0.0112832 81.1353 0.319211 83.1547 0.553009 85.1233C0.855293 87.0944 1.06797 89.0256 1.64197 90.8927C2.54554 93.67 3.77344 97.7046 5.81989 100.523C7.94008 103.359 10.4078 104.96 13.0128 103.569C14.7302 102.661 15.95 100.799 16.7961 98.8859C17.7042 96.964 18.5396 94.8914 19.4673 93.0422C20.1519 91.764 20.8326 90.5904 21.7381 89.4812C22.6575 88.3721 23.6072 87.3281 24.5231 86.3042C25.4394 85.2796 26.322 84.2756 27.1065 83.2397C27.9015 82.2049 28.8142 81.1666 29.4605 80.0247C28.5523 80.1677 27.6313 80.3256 26.7104 80.5157Z" fill="#966B28"/>
<path d="M23.8881 70.3043C21.4122 70.5508 18.9014 71.128 16.8283 73.0089C15.6091 74.1912 14.8205 75.8159 13.9558 77.418C13.8056 77.7035 13.6397 78.0049 13.3895 78.1531C13.0133 78.3749 12.568 78.1566 12.3261 77.7758C12.0842 77.3944 11.9965 76.8897 11.9104 76.4012C11.6731 75.0625 11.4005 73.7192 11.095 72.3713C10.8772 71.0408 10.6769 69.7159 10.4145 68.3797C10.1592 67.0456 9.87173 65.707 9.55397 64.3658C9.39154 63.7015 9.22754 63.0312 9.06197 62.3545C8.93182 61.7042 8.80114 61.0476 8.66889 60.386C8.81334 61.6253 7.73094 65.7244 7.55881 67.2435C7.4322 68.431 7.33079 69.6135 7.26873 70.7835C7.19854 71.951 7.35991 73.1442 7.46763 74.2933C7.6639 76.0111 8.01644 78.5241 8.78527 80.4419C9.64568 82.3777 11.0033 83.7051 12.7453 83.2494C13.9328 82.9563 14.8127 81.9866 15.6973 80.9334C16.5691 79.8781 17.2829 78.6886 18.104 77.641C19.2622 76.2003 20.5169 75.0158 21.8862 73.8745C23.2915 72.7388 24.6215 71.6096 25.6192 70.1736C25.0463 70.2171 24.4667 70.2607 23.8881 70.3043Z" fill="#966B28"/>
<path d="M35.8698 49.4365C32.7312 48.7017 29.4071 48.3855 26.1031 49.9255C24.0044 50.8558 22.4766 52.6394 20.7408 54.3147C20.4409 54.6166 20.1155 54.9344 19.7419 55.0282C19.1807 55.1691 18.7021 54.7309 18.5447 54.1594C18.3863 53.589 18.472 52.9171 18.5535 52.2662C18.7503 50.4955 18.9501 48.695 19.1541 46.8602C19.438 45.0976 19.6856 43.3069 19.9008 41.4916C20.2263 37.7896 20.9038 34.3116 21.2897 30.6344C21.1052 32.4266 17.4762 36.8784 16.7982 38.8833C15.5486 41.8718 14.2643 44.7793 13.7825 47.9052C13.5638 49.0461 13.3152 50.4565 13.1517 51.9208C13.0697 52.6532 13.0092 53.3984 12.9826 54.1303C12.9923 54.8775 13.0713 55.6263 13.1732 56.3269C13.5981 59.1462 14.7385 61.2589 17.1538 61.2906C18.7431 61.3162 20.3529 60.4552 21.7206 59.4C23.0178 58.3114 24.4917 57.1505 25.8873 56.15C26.8739 55.47 27.8953 54.8995 28.9188 54.3844L30.4526 53.6458L32.0937 53.0155C34.2601 52.1811 36.3115 51.3457 38.0458 50.007C37.3325 49.8051 36.6067 49.6093 35.8698 49.4365Z" fill="#966B28"/>
<path d="M37.4247 40.6992C35.5116 40.0723 33.4718 39.6787 31.3495 40.4157C30.0314 40.8729 28.7881 41.7324 27.5458 42.5796C27.3151 42.7236 27.1189 42.9086 26.8826 42.9286C26.5366 42.9645 26.2804 42.6416 26.2246 42.267C26.1559 41.8841 26.2978 41.5034 26.4152 41.1209C27.0778 39.0401 27.6329 36.9003 28.0895 34.715C28.479 32.4737 29.1156 30.4713 29.462 28.2792C29.3078 29.3581 26.8468 31.7357 26.3403 32.8915C25.4194 34.5858 24.5733 36.3048 23.9096 38.0356C23.3643 39.2882 22.8215 41.2902 22.7939 43.0225C22.7441 44.7481 23.1875 46.1703 24.6553 46.4876C25.6208 46.6987 26.7104 46.3625 27.6837 45.8668C28.6763 45.3826 29.5173 44.6819 30.5382 44.2211C33.3565 42.944 36.3147 42.7246 38.7741 41.1881C38.3282 41.0165 37.8686 40.8417 37.4247 40.6992Z" fill="#966B28"/>
<path d="M55.6723 27.3132C53.407 25.6655 50.9419 24.3893 47.8669 24.5205C45.9691 24.6168 43.9524 25.2114 42.1485 26.056C41.8189 26.1954 41.4653 26.3383 41.1486 26.2861C40.6725 26.2076 40.4499 25.6957 40.5161 25.1878C40.5817 24.6809 40.8661 24.1771 41.1403 23.6881C42.6574 21.0272 44.3399 18.5579 45.7917 15.7975C47.2765 13.0785 48.9155 10.5933 50.3361 7.82007C49.6489 9.17516 45.4387 11.4804 44.2194 12.7233C42.297 14.6293 40.4725 16.5964 38.9017 18.6394C36.6959 21.9497 33.0357 28.3321 36.8774 30.1392C38.0464 30.6866 39.6648 30.6672 41.1414 30.3729C42.6255 30.0854 44.0667 29.5688 45.4955 29.2541C47.4189 28.7591 49.5525 28.9507 51.4938 28.9502C53.4879 29.0183 55.294 28.8702 57.2349 28.5176C56.7275 28.1117 56.2078 27.7063 55.6723 27.3132Z" fill="#966B28"/>
<path d="M59.8291 20.9037C58.5125 19.8048 57.0268 18.8485 55.1214 18.7542C53.9385 18.6952 52.688 18.9765 51.4441 19.2467C51.2233 19.2948 50.987 19.342 50.7932 19.2769C50.5021 19.1785 50.413 18.848 50.5017 18.5528C50.5908 18.257 50.8158 17.9879 51.0316 17.7266C53.4013 14.8677 55.4488 11.6132 57.4537 8.59851C56.9996 9.39453 54.33 10.4713 53.5766 11.2196C52.3277 12.2549 51.1274 13.3328 50.0624 14.4808C48.3789 16.0906 45.7743 19.8683 47.8678 21.3095C48.548 21.7934 49.5032 21.8821 50.4227 21.8036C51.3231 21.695 52.3052 21.555 53.2518 21.5119C55.8752 21.4003 58.285 22.1671 60.7413 21.7114C60.4395 21.431 60.1355 21.1568 59.8291 20.9037Z" fill="#966B28"/>
<path d="M77.085 15.2474C75.856 13.5751 74.3318 11.8618 72.1347 11.2637C70.7761 10.909 69.2432 10.9443 67.7175 10.97C67.4464 10.9741 67.1574 10.9741 66.9472 10.8506C66.6305 10.6641 66.61 10.2489 66.7904 9.91777C66.9708 9.58674 67.3039 9.31922 67.6252 9.05877C71.0979 6.0488 74.5845 3.28944 77.7809 0C77.0019 0.793396 73.5892 1.58994 72.4284 2.08393C70.5952 2.78246 68.9014 3.83472 67.3383 4.95403C66.1753 5.78639 64.496 7.05226 63.4079 8.38687C62.3434 9.79536 61.9109 11.3266 62.9431 12.4286C63.6339 13.1861 64.7035 13.447 65.8381 13.67C66.9703 13.8837 68.1403 13.9252 69.2525 14.102C70.7885 14.3465 72.2086 14.8508 73.6026 15.2961C74.9966 15.7384 76.4304 16.3396 77.9224 16.4581L77.085 15.2474Z" fill="#966B28"/>
<path d="M81.6292 11.5266C80.9123 10.395 80.0661 9.42379 78.7245 8.92613C77.8926 8.62527 76.9388 8.55351 75.9943 8.474C75.8273 8.46022 75.6485 8.44225 75.527 8.3525C75.344 8.21671 75.3589 7.95797 75.4905 7.76418C75.6217 7.57 75.8437 7.42541 76.0564 7.28449C77.2243 6.51367 78.3534 5.67356 79.4399 4.77205C80.53 3.89062 81.6108 3.11415 82.621 2.1864C82.1295 2.6405 80.0225 2.87221 79.3127 3.1623C78.2069 3.62965 77.1245 4.13807 76.1174 4.72797C74.6035 5.60901 71.7934 7.40743 72.9291 8.98451C73.2955 9.50579 73.9618 9.83275 74.6481 10.0357C75.3342 10.2382 76.061 10.3345 76.7467 10.5108C78.6486 11.0238 80.1959 12.034 82.112 12.322L81.6292 11.5266Z" fill="#966B28"/>
<path d="M95.1925 8.57095C94.7241 7.50019 94.1143 6.46039 92.9914 5.7961C92.2939 5.3836 91.4524 5.15084 90.622 4.91402C90.4745 4.87203 90.3177 4.8244 90.2239 4.7239C90.0824 4.57275 90.1373 4.34826 90.2864 4.20223C90.4351 4.05554 90.6559 3.9679 90.8681 3.88235C93.1974 2.94647 95.4268 1.73742 97.4973 0.312662C96.9935 0.659174 95.0911 0.708899 94.4152 0.84627C93.3605 1.05987 92.319 1.31415 91.3304 1.65239C90.5949 1.90352 89.5176 2.29976 88.7279 2.83022C87.9407 3.40621 87.4487 4.1525 87.8116 4.90942C88.052 5.42663 88.5839 5.73969 89.1646 6.04264C89.7447 6.34192 90.3797 6.55565 90.9661 6.83249C92.586 7.59558 93.8211 8.83848 95.5036 9.32538L95.1925 8.57095Z" fill="#966B28"/>
<path d="M131.965 192C131.753 192.002 131.536 191.979 131.336 191.949C115.692 189.545 100.164 185.873 85.2368 180.582C69.9187 175.151 54.759 167.946 42.3509 157.287C40.7109 155.877 39.1201 154.408 37.602 152.868C24.6573 139.776 18.2787 125.424 18.2787 125.424C15.8285 119.911 11.5077 108.634 10.9198 93.6613C10.4909 82.7509 12.0893 71.7532 15.7117 61.4465C19.3186 51.1366 24.9177 41.5392 32.0829 33.3128C46.3571 16.7794 67.081 6.0303 88.8166 3.94284C89.1497 3.92591 89.4388 4.12586 89.4624 4.3888C89.4848 4.65068 89.2388 4.8761 88.9113 4.89355C67.4254 7.05593 47.0212 17.7696 33.0244 34.1291C25.998 42.2695 20.5286 51.746 17.0257 61.9047C13.5074 72.0602 11.9858 82.8789 12.4547 93.5968C12.9062 104.318 15.4052 114.953 19.8137 124.736C25.9411 138.333 34.0263 146.697 38.1873 150.913C44.7232 157.535 52.2364 163.153 60.3533 167.69C78.1596 177.643 98.5986 183.2 118.451 187.373C122.704 188.267 126.976 189.068 131.264 189.775C131.744 189.854 132.246 189.94 132.637 190.23C133.029 190.519 133.268 191.078 133.037 191.508C132.836 191.882 132.412 191.995 131.965 192Z" fill="#966B28"/>
<path d="M190.549 115.259C192.205 116.657 193.86 118.23 195.098 120.008C196.3 121.77 197.192 123.784 197.551 126.154C198.103 129.156 197.34 132.221 196.665 135.366C196.543 135.924 196.422 136.523 196.586 137.014C196.832 137.752 197.666 137.977 198.422 137.737C199.178 137.498 199.873 136.907 200.548 136.333C204.408 133.277 207.834 129.887 211.683 126.593C215.069 123.109 219.022 119.718 222.358 116.064C221.457 116.928 220.739 119.36 219.602 121.746C218.56 124.162 217.566 126.684 216.889 127.943C215.783 129.888 214.435 131.702 213.16 133.49C212.509 134.377 211.848 135.247 211.176 136.093C210.506 136.939 209.69 137.688 208.938 138.451C207.794 139.572 206.362 140.928 204.812 142.217C203.31 143.541 201.371 144.578 199.672 145.401C196.184 147.01 193.021 147.2 191.311 144.428C190.173 142.605 189.992 140.133 190.18 137.823C190.275 136.666 190.458 135.523 190.645 134.398C190.767 133.228 190.852 132.048 190.88 130.908C190.911 129.329 190.79 127.799 190.601 126.315C190.429 124.842 189.965 123.295 189.645 121.858C189.296 120.404 188.967 118.991 188.746 117.606C188.539 116.226 188.188 114.768 188.163 113.367C188.961 113.972 189.764 114.599 190.549 115.259Z" fill="#966B28"/>
<path d="M198.531 107.029C200.782 108.522 202.892 110.356 203.892 113.228C204.596 115.037 204.395 116.972 204.412 118.97C204.406 119.323 204.407 119.698 204.569 119.971C204.812 120.381 205.354 120.405 205.787 120.165C206.22 119.925 206.571 119.486 206.911 119.061C207.815 117.888 208.883 116.766 209.753 115.582C210.633 114.402 211.55 113.232 212.502 112.072C213.452 110.913 214.437 109.763 215.451 108.623C216.356 107.462 217.279 106.309 218.24 105.17C217.773 105.725 217.385 107.162 217.049 108.657C216.619 110.135 216.162 111.659 215.848 112.44C214.782 114.858 213.868 117.282 212.289 119.344C211.193 120.904 209.524 123.148 207.774 124.591C205.905 125.996 203.928 126.56 202.496 125.197C201.519 124.288 201.164 122.886 200.893 121.424C200.612 119.956 200.552 118.447 200.314 117.02C199.79 113.109 197.317 109.742 196.936 106.027C197.467 106.348 198.003 106.679 198.531 107.029Z" fill="#966B28"/>
<path d="M165.499 144.27C166.301 146.696 166.931 149.221 167.104 151.832C167.239 154.383 166.823 156.891 165.676 159.475C164.312 162.806 161.519 165.242 158.827 167.981C158.352 168.479 157.816 168.937 157.634 169.493C157.365 170.338 158.037 171.136 158.96 171.45C159.885 171.776 160.934 171.585 161.982 171.467C173.462 170.205 185.363 168.023 197.021 164.767C195.571 165.13 193.094 166.973 190.605 168.944C187.998 170.772 185.297 172.648 183.788 173.496L182.009 174.463L180.14 175.271C178.893 175.798 177.647 176.301 176.404 176.779C175.159 177.253 173.924 177.713 172.681 178.117C171.396 178.444 170.117 178.74 168.846 179.001C166.944 179.363 164.651 179.887 162.202 180.051C159.727 180.157 157.186 180.109 154.951 179.768C152.733 179.492 150.729 178.621 149.392 177.514C148.044 176.389 147.331 174.913 147.457 173.024C147.617 170.499 149.208 168.271 150.878 166.002C151.731 164.913 152.653 163.898 153.563 162.904C154.479 161.927 155.375 160.945 156.108 159.783C158.171 156.67 159.567 153.542 160.611 150.138C161.166 148.494 161.706 146.911 162.33 145.433C162.87 143.827 163.478 142.308 164.28 140.927C164.706 142.017 165.122 143.133 165.499 144.27Z" fill="#966B28"/>
<path d="M178.377 141.119C179.86 144.063 180.862 147.152 180.028 150.564C179.508 152.678 178.406 154.846 177.049 156.707C176.818 157.05 176.578 157.421 176.566 157.792C176.549 158.35 177.078 158.716 177.668 158.753C178.258 158.79 178.894 158.576 179.511 158.37C181.246 157.862 182.79 157.115 184.471 156.523C186.13 155.904 187.822 155.314 189.544 154.75C192.796 153.431 196.186 152.22 199.615 151.06C197.975 151.648 194.259 155.858 192.705 157.139C190.133 158.989 187.433 160.629 184.752 161.998C182.662 162.905 179.495 164.061 176.808 164.393C174.116 164.747 171.715 163.94 171.188 161.705C170.813 160.202 171.332 158.554 171.954 156.889C172.607 155.267 173.503 153.749 174.166 152.204C175.137 150.143 175.358 147.683 175.762 145.515C176.136 143.306 176.58 141.245 177.322 139.121C177.681 139.773 178.039 140.438 178.377 141.119Z" fill="#966B28"/>
<path d="M195.79 80.5157C197.741 80.9232 199.747 81.4701 201.544 82.3562C203.281 83.2495 204.88 84.476 206.205 86.2165C207.028 87.2969 207.712 88.5341 208.326 89.8502C208.833 91.1669 209.22 92.5609 209.635 93.9617C209.781 94.4599 209.944 94.9893 210.29 95.3034C210.81 95.7765 211.582 95.5756 212.085 95.0441C212.59 94.5131 212.891 93.7321 213.184 92.975C213.593 91.9423 214.005 90.9014 214.42 89.8513C214.761 88.8108 215.105 87.7612 215.452 86.7024C216.16 84.5948 216.944 82.4664 217.731 80.322C218.355 78.1924 219.027 76.0409 219.74 73.8699C220.103 72.789 220.47 71.6988 220.84 70.5989C221.185 69.5103 221.448 68.4346 221.772 67.3451C221.39 69.4181 222.436 76.5421 222.5 79.1196C222.489 81.1353 222.181 83.1547 221.947 85.1233C221.645 87.0944 221.432 89.0256 220.858 90.8927C219.954 93.67 218.726 97.7046 216.681 100.523C214.56 103.359 212.092 104.96 209.488 103.569C207.77 102.661 206.55 100.799 205.704 98.8859C204.796 96.964 203.96 94.8914 203.033 93.0422C202.348 91.764 201.667 90.5904 200.762 89.4812C199.843 88.3721 198.893 87.3281 197.977 86.3042C197.061 85.2796 196.178 84.2756 195.393 83.2397C194.598 82.2049 193.686 81.1666 193.04 80.0247C193.948 80.1677 194.869 80.3256 195.79 80.5157Z" fill="#966B28"/>
<path d="M198.612 70.3043C201.088 70.5508 203.598 71.128 205.672 73.0089C206.891 74.1912 207.679 75.8159 208.544 77.418C208.695 77.7035 208.861 78.0049 209.111 78.1531C209.487 78.3749 209.932 78.1566 210.174 77.7758C210.416 77.3944 210.504 76.8897 210.59 76.4012C210.827 75.0625 211.099 73.7192 211.405 72.3713C211.623 71.0408 211.823 69.7159 212.085 68.3797C212.341 67.0456 212.628 65.707 212.946 64.3658C213.109 63.7015 213.273 63.0312 213.438 62.3545C213.569 61.7042 213.699 61.0476 213.831 60.386C213.687 61.6253 214.769 65.7244 214.941 67.2435C215.068 68.431 215.169 69.6135 215.231 70.7835C215.302 71.951 215.14 73.1442 215.033 74.2933C214.836 76.0111 214.483 78.5241 213.715 80.4419C212.854 82.3777 211.497 83.7051 209.755 83.2494C208.568 82.9563 207.688 81.9866 206.803 80.9334C205.931 79.8781 205.217 78.6886 204.396 77.641C203.238 76.2003 201.983 75.0158 200.614 73.8745C199.208 72.7388 197.879 71.6096 196.881 70.1736C197.454 70.2171 198.034 70.2607 198.612 70.3043Z" fill="#966B28"/>
<path d="M186.63 49.4365C189.769 48.7017 193.093 48.3855 196.397 49.9255C198.495 50.8558 200.023 52.6394 201.759 54.3147C202.059 54.6166 202.385 54.9344 202.758 55.0282C203.319 55.1691 203.798 54.7309 203.956 54.1594C204.114 53.589 204.028 52.9171 203.947 52.2662C203.75 50.4955 203.55 48.695 203.346 46.8602C203.062 45.0976 202.814 43.3069 202.599 41.4916C202.274 37.7896 201.597 34.3116 201.211 30.6344C201.395 32.4266 205.024 36.8784 205.702 38.8833C206.952 41.8718 208.236 44.7793 208.718 47.9052C208.937 49.0461 209.185 50.4565 209.349 51.9208C209.43 52.6532 209.491 53.3984 209.517 54.1303C209.508 54.8775 209.429 55.6263 209.327 56.3269C208.902 59.1462 207.762 61.2589 205.347 61.2906C203.757 61.3162 202.147 60.4552 200.78 59.4C199.483 58.3114 198.008 57.1505 196.612 56.15C195.626 55.47 194.605 54.8995 193.581 54.3844L192.047 53.6458L190.406 53.0155C188.24 52.1811 186.189 51.3457 184.455 50.007C185.167 49.8051 185.894 49.6093 186.63 49.4365Z" fill="#966B28"/>
<path d="M185.076 40.6992C186.989 40.0723 189.028 39.6787 191.151 40.4157C192.469 40.8729 193.712 41.7324 194.955 42.5796C195.185 42.7236 195.382 42.9086 195.618 42.9286C195.963 42.9645 196.22 42.6416 196.275 42.267C196.345 41.8841 196.202 41.5034 196.085 41.1209C195.422 39.0401 194.867 36.9003 194.411 34.715C194.021 32.4737 193.385 30.4713 193.038 28.2792C193.193 29.3581 195.653 31.7357 196.16 32.8915C197.081 34.5858 197.927 36.3048 198.59 38.0356C199.136 39.2882 199.678 41.2902 199.707 43.0225C199.756 44.7481 199.312 46.1703 197.845 46.4876C196.879 46.6987 195.79 46.3625 194.817 45.8668C193.824 45.3826 192.983 44.6819 191.962 44.2211C189.143 42.944 186.185 42.7246 183.726 41.1881C184.172 41.0165 184.632 40.8417 185.076 40.6992Z" fill="#966B28"/>
<path d="M166.828 27.3132C169.093 25.6655 171.558 24.3893 174.633 24.5205C176.531 24.6168 178.548 25.2114 180.352 26.056C180.681 26.1954 181.035 26.3383 181.352 26.2861C181.828 26.2076 182.05 25.6957 181.984 25.1878C181.918 24.6809 181.634 24.1771 181.36 23.6881C179.843 21.0272 178.16 18.5579 176.709 15.7975C175.223 13.0785 173.585 10.5933 172.164 7.82007C172.851 9.17516 177.061 11.4804 178.281 12.7233C180.203 14.6293 182.028 16.5964 183.599 18.6394C185.804 21.9497 189.465 28.3321 185.623 30.1392C184.454 30.6866 182.835 30.6672 181.358 30.3729C179.874 30.0854 178.433 29.5688 177.004 29.2541C175.082 28.7591 172.948 28.9507 171.007 28.9502C169.012 29.0183 167.206 28.8702 165.265 28.5176C165.772 28.1117 166.292 27.7063 166.828 27.3132Z" fill="#966B28"/>
<path d="M162.671 20.9037C163.988 19.8048 165.473 18.8485 167.379 18.7542C168.561 18.6952 169.812 18.9765 171.056 19.2467C171.277 19.2948 171.513 19.342 171.707 19.2769C171.998 19.1785 172.087 18.848 171.998 18.5528C171.909 18.257 171.685 17.9879 171.468 17.7266C169.099 14.8677 167.052 11.6132 165.047 8.59851C165.501 9.39453 168.17 10.4713 168.924 11.2196C170.173 12.2549 171.373 13.3328 172.437 14.4808C174.121 16.0906 176.726 19.8683 174.633 21.3095C173.952 21.7934 172.997 21.8821 172.077 21.8036C171.177 21.695 170.195 21.555 169.248 21.5119C166.625 21.4003 164.215 22.1671 161.759 21.7114C162.06 21.431 162.364 21.1568 162.671 20.9037Z" fill="#966B28"/>
<path d="M145.415 15.2474C146.644 13.5751 148.168 11.8618 150.365 11.2637C151.724 10.909 153.257 10.9443 154.782 10.97C155.053 10.9741 155.343 10.9741 155.553 10.8506C155.869 10.6641 155.89 10.2489 155.709 9.91777C155.53 9.58674 155.196 9.31922 154.875 9.05877C151.402 6.0488 147.915 3.28944 144.72 0C145.498 0.793396 148.911 1.58994 150.072 2.08393C151.905 2.78246 153.598 3.83472 155.162 4.95403C156.325 5.78639 158.004 7.05226 159.092 8.38687C160.157 9.79536 160.589 11.3266 159.557 12.4286C158.866 13.1861 157.797 13.447 156.662 13.67C155.53 13.8837 154.36 13.9252 153.248 14.102C151.712 14.3465 150.292 14.8508 148.898 15.2961C147.504 15.7384 146.07 16.3396 144.578 16.4581L145.415 15.2474Z" fill="#966B28"/>
<path d="M140.871 11.5266C141.588 10.395 142.434 9.42379 143.775 8.92613C144.607 8.62527 145.562 8.55351 146.506 8.474C146.673 8.46022 146.852 8.44225 146.973 8.3525C147.156 8.21671 147.141 7.95797 147.01 7.76418C146.878 7.57 146.657 7.42541 146.443 7.28449C145.276 6.51367 144.147 5.67356 143.06 4.77205C141.97 3.89062 140.89 3.11415 139.879 2.1864C140.37 2.6405 142.477 2.87221 143.187 3.1623C144.293 3.62965 145.376 4.13807 146.383 4.72797C147.896 5.60901 150.706 7.40743 149.571 8.98451C149.204 9.50579 148.539 9.83275 147.852 10.0357C147.166 10.2382 146.439 10.3345 145.754 10.5108C143.852 11.0238 142.304 12.034 140.388 12.322L140.871 11.5266Z" fill="#966B28"/>
<path d="M127.308 8.57095C127.776 7.50019 128.386 6.46039 129.509 5.7961C130.206 5.3836 131.048 5.15084 131.878 4.91402C132.026 4.87203 132.182 4.8244 132.276 4.7239C132.417 4.57275 132.363 4.34826 132.213 4.20223C132.065 4.05554 131.845 3.9679 131.632 3.88235C129.303 2.94647 127.073 1.73742 125.003 0.312662C125.506 0.659174 127.409 0.708899 128.085 0.84627C129.14 1.05987 130.181 1.31415 131.17 1.65239C131.906 1.90352 132.982 2.29976 133.772 2.83022C134.56 3.40621 135.051 4.1525 134.688 4.90942C134.448 5.42663 133.917 5.73969 133.336 6.04264C132.755 6.34192 132.121 6.55565 131.534 6.83249C129.914 7.59558 128.679 8.83848 126.997 9.32538L127.308 8.57095Z" fill="#966B28"/>
<path d="M90.5344 192C90.7472 192.002 90.9645 191.979 91.1643 191.949C106.808 189.545 122.336 185.873 137.263 180.582C152.581 175.151 167.741 167.946 180.149 157.287C181.789 155.877 183.38 154.408 184.898 152.868C197.843 139.776 204.222 125.424 204.222 125.424C206.671 119.911 210.992 108.634 211.581 93.6613C212.009 82.7509 210.411 71.7532 206.788 61.4465C203.182 51.1366 197.583 41.5392 190.417 33.3128C176.143 16.7794 155.419 6.0303 133.684 3.94284C133.35 3.92591 133.061 4.12586 133.038 4.3888C133.015 4.65068 133.262 4.8761 133.589 4.89355C155.074 7.05593 175.479 17.7696 189.475 34.1291C196.502 42.2695 201.972 51.746 205.475 61.9047C208.992 72.0602 210.514 82.8789 210.045 93.5968C209.594 104.318 207.095 114.953 202.687 124.736C196.559 138.333 188.474 146.697 184.313 150.913C177.777 157.535 170.263 163.153 162.147 167.69C144.34 177.643 123.901 183.2 104.048 187.373C99.7958 188.267 95.5237 189.068 91.2361 189.775C90.7559 189.854 90.2547 189.94 89.863 190.23C89.471 190.519 89.2322 191.078 89.4629 191.508C89.6638 191.882 90.0886 191.995 90.5344 192Z" fill="#966B28"/>
<path d="M626.012 141.062L625.649 141.318C626.478 141.873 627.325 142.397 628.193 142.897L628.66 142.423L626.012 141.062ZM655.061 103.207V123.377L652.413 121.006V103.207H655.061ZM646.792 101.291C646.707 101.291 646.622 101.28 646.541 101.258L651.662 100.218L645.716 100.211C645.716 99.6157 646.2 99.1319 646.795 99.1319L662.182 99.1504L654.416 99.893L664.354 99.9004C664.387 100.004 664.406 100.116 664.406 100.23C664.406 100.825 663.922 101.31 663.325 101.31L646.792 101.291ZM653.223 82.6773H654.362V97.4559H653.223V82.6773ZM690.238 124.287L689.967 124.102L683.262 119.484L674.025 129.401L664.979 125.681L660.02 127.853L658.97 126.905V103.003L663.322 103.008C664.857 103.011 666.103 101.765 666.103 100.234C666.108 98.6985 664.861 97.4533 663.33 97.4533L657.657 97.4444C657.557 97.2262 657.368 97.0532 657.128 96.9821C656.547 96.8131 656.018 96.4955 655.597 96.0665C656.033 96.1689 656.384 96.2251 656.699 96.2395C657.19 96.2614 657.638 95.9248 657.723 95.4407C657.804 94.957 657.512 94.4973 657.057 94.3571C656.507 94.184 656.004 93.8734 655.597 93.4588C656.037 93.5657 656.384 93.6175 656.702 93.6323C657.19 93.6537 657.642 93.3216 657.723 92.8375C657.808 92.3493 657.517 91.8941 657.062 91.7499C656.507 91.5764 656.004 91.2687 655.601 90.8556C656.04 90.9581 656.388 91.0143 656.706 91.0287C657.194 91.0505 657.645 90.714 657.727 90.2328C657.811 89.7461 657.519 89.2868 657.064 89.1466C656.51 88.9732 656.007 88.6611 655.604 88.248C656.045 88.3549 656.391 88.407 656.71 88.4214C657.199 88.4429 657.645 88.1108 657.73 87.6267C657.811 87.1385 657.524 86.6833 657.069 86.539C656.514 86.3656 656.011 86.0579 655.608 85.6448C656.045 85.7472 656.396 85.8038 656.71 85.8182C657.202 85.8397 657.649 85.5031 657.735 85.022C657.816 84.5353 657.524 84.076 657.069 83.9358C656.517 83.7609 656.014 83.4502 655.608 83.0371C656.047 83.144 656.396 83.1962 656.713 83.2106C657.202 83.232 657.652 82.8999 657.735 82.4158C657.82 81.9277 657.527 81.4728 657.072 81.3282C656.957 81.2904 656.846 81.2501 656.737 81.2024L660.874 77.0608V75.9772L649.296 75.9613V77.0493L650.379 78.1369C651.681 79.4457 652.409 81.2168 652.409 83.063L652.394 97.4415L646.799 97.4345C645.264 97.43 644.018 98.6767 644.014 100.208C644.014 101.742 645.261 102.989 646.792 102.989L651.152 102.996V119.868L650.723 119.484L639.565 121.188L632.439 125.216L631.042 131.103L628.615 134.609L628.252 135.133L622.055 131.88L616.785 132.656L616.29 133.092C617.487 134.479 618.779 135.796 620.159 137.042C621.789 138.514 623.504 139.865 625.317 141.088L626.164 140.403L629.274 141.835L632.747 139.576L628.404 143.018C630.812 144.402 633.361 145.59 636.061 146.584C637.106 146.972 638.168 147.323 639.244 147.641H671.679C672.764 147.323 673.832 146.972 674.891 146.584C680.955 144.365 686.279 141.185 690.866 137.042C692.549 135.522 694.098 133.898 695.508 132.172L690.238 124.287ZM626.012 141.062L625.649 141.318C626.478 141.873 627.325 142.397 628.193 142.897L628.66 142.423L626.012 141.062Z" fill="#966B28"/>
<path d="M632.39 128.472C630.91 129.101 629.431 129.729 627.952 130.357C626.978 129.876 626.003 129.397 625.029 128.916C624.007 129.236 622.984 129.556 621.961 129.876C622.244 131.739 622.528 133.601 622.81 135.461C625.154 136.669 627.495 137.877 629.837 139.086C631.909 136.78 633.98 134.475 636.05 132.171C634.829 130.937 633.61 129.705 632.39 128.472Z" fill="#966B28"/>
<path d="M324.679 137.042H336.809C338.288 140.396 340.26 142.789 342.726 144.217C345.189 145.647 347.557 146.361 349.826 146.361H351.009V147.841H317.726V146.361H319.058C320.931 146.361 322.609 145.548 324.088 143.921C325.568 142.293 325.762 140 324.679 137.042ZM297.166 42.2191L340.951 146.953H328.377L294.207 56.2725L297.166 42.2191ZM318.023 111.894H271.722V107.456H318.023V111.894ZM297.166 42.2191L298.496 52.5742L261.368 147.397H252.492L290.36 57.4556C291.445 54.9925 292.358 52.8705 293.098 51.0949C293.837 49.3194 294.478 47.596 295.02 45.9174C295.561 44.2417 295.834 43.0094 295.834 42.2191H297.166ZM265.362 137.042C264.67 139.017 264.57 140.693 265.066 142.072C265.558 143.454 266.372 144.512 267.507 145.252C268.638 145.991 269.8 146.361 270.983 146.361H272.315V147.841H242.581V146.361H243.913C246.179 146.361 248.521 145.647 250.939 144.217C253.354 142.789 255.351 140.396 256.93 137.042H265.362Z" fill="#966B28"/>
<path d="M412.989 69.8825C414.074 66.9239 413.925 64.6313 412.545 63.0029C411.163 61.3765 409.587 60.5632 407.811 60.5632H406.776V59.0839H434.882V60.5632H433.698C431.628 60.5632 429.506 61.2781 427.338 62.7067C425.168 64.1387 423.293 66.5307 421.717 69.8825H412.989ZM384.44 149.912L383.404 139.706L417.279 59.5273H426.598L391.54 134.676C390.454 137.042 389.543 139.091 388.804 140.815C388.064 142.542 387.398 144.242 386.806 145.917C386.215 147.596 385.868 148.925 385.772 149.912H384.44ZM384.44 149.912L343.76 59.9708H355.447L386.955 136.747L384.44 149.912ZM359.44 69.8825H348.198C346.719 66.5307 344.893 64.1387 342.725 62.7067C340.555 61.2781 338.484 60.5632 336.512 60.5632H335.328V59.0839H365.653V60.5632H364.47C362.793 60.5632 361.289 61.3765 359.959 63.0029C358.626 64.6313 358.453 66.9239 359.44 69.8825Z" fill="#966B28"/>
<path d="M496.272 137.042H507.513C508.993 140.396 510.816 142.789 512.987 144.217C515.155 145.647 517.225 146.361 519.2 146.361H520.383V147.841H490.059V146.361H491.242C492.917 146.361 494.446 145.548 495.828 143.921C497.208 142.293 497.355 140 496.272 137.042ZM471.272 57.0121L511.951 146.953H500.266L468.757 70.1772L471.272 57.0121ZM488.726 117.811H449.526V113.373H488.726V117.811ZM471.272 57.0121L472.308 67.2186L438.432 147.397H429.113L464.172 72.2486C465.255 69.8824 466.168 67.8369 466.908 66.1091C467.647 64.3857 468.313 62.6838 468.906 61.0066C469.496 59.331 469.842 57.9988 469.941 57.0121H471.272ZM442.723 137.042C441.636 140 441.784 142.293 443.166 143.921C444.546 145.548 446.125 146.361 447.9 146.361H449.083V147.841H420.83V146.361H422.013C424.085 146.361 426.204 145.647 428.374 144.217C430.542 142.789 432.416 140.396 433.994 137.042H442.723Z" fill="#966B28"/>
<path d="M595.972 126.687L587.836 147.841H565.351L570.381 143.255C575.312 143.255 579.278 142.542 582.289 141.11C585.296 139.683 587.736 137.708 589.611 135.193C591.482 132.678 593.11 129.845 594.492 126.687H595.972ZM587.689 143.255L587.392 147.841H547.6V143.255H587.689ZM547.453 68.5503V59.0824H558.399V60.5617H556.625C554.257 60.5617 552.208 61.3273 550.485 62.8558C548.757 64.3857 547.896 66.2837 547.896 68.5503H547.453ZM547.896 147.841H538.429V59.0824H547.896V147.841ZM538.725 138.374L540.648 147.841H527.778V146.361H529.849C532.314 146.361 534.336 145.574 535.915 143.995C537.49 142.419 538.33 140.544 538.429 138.374H538.725ZM538.725 68.5503H538.429C538.33 66.2837 537.442 64.3857 535.766 62.8558C534.088 61.3273 532.018 60.5617 529.553 60.5617H527.778V59.0824H538.725V68.5503Z" fill="#966B28"/>
<path d="M689.313 125.356C688.78 126.329 688.221 127.268 687.63 128.175C687.6 128.218 687.574 128.263 687.545 128.303C686.051 130.579 684.376 132.646 682.512 134.502C682.412 134.602 682.313 134.701 682.211 134.797C680.123 136.84 677.807 138.622 675.26 140.149C669.343 143.699 662.734 145.474 655.438 145.474C650.438 145.474 645.745 144.616 641.366 142.904C641.311 142.885 641.255 142.864 641.2 142.838C639.332 142.098 637.521 141.202 635.764 140.149C633.948 139.059 632.247 137.838 630.66 136.487C630.579 136.418 630.494 136.347 630.412 136.273C629.795 135.74 629.196 135.185 628.615 134.609C625.934 131.954 623.63 128.87 621.711 125.356C618.257 119.046 616.534 111.746 616.534 103.463C616.534 95.0823 618.257 87.7598 621.711 81.4942C625.161 75.2334 629.847 70.3259 635.764 66.7748C641.681 63.2256 648.238 61.45 655.438 61.45C662.734 61.45 669.343 63.2256 675.26 66.7748C681.177 70.3259 685.859 75.2334 689.313 81.4942C692.763 87.7598 694.491 95.0823 694.491 103.463C694.491 111.203 692.981 118.086 689.967 124.102C689.757 124.524 689.538 124.942 689.313 125.356ZM701.591 84.6019C699.023 78.9317 695.451 74.0241 690.866 69.8824C686.279 65.7408 680.955 62.5595 674.891 60.3406C668.825 58.1216 662.338 57.0121 655.438 57.0121C648.533 57.0121 642.072 58.1216 636.06 60.3406C630.042 62.5595 624.743 65.7408 620.159 69.8824C615.572 74.0241 611.996 78.9317 609.434 84.6019C606.867 90.2746 605.587 96.5616 605.587 103.463C605.587 110.367 606.867 116.654 609.434 122.324C611.224 126.288 613.512 129.879 616.29 133.092C617.487 134.479 618.779 135.796 620.159 137.042C621.789 138.514 623.504 139.865 625.317 141.088C625.428 141.169 625.538 141.244 625.649 141.318C626.478 141.873 627.325 142.397 628.193 142.897C628.264 142.942 628.335 142.982 628.404 143.018C630.812 144.402 633.361 145.59 636.061 146.584C637.106 146.972 638.168 147.323 639.244 147.641C644.339 149.153 649.735 149.912 655.438 149.912C661.137 149.912 666.551 149.153 671.681 147.641C672.764 147.323 673.832 146.972 674.891 146.584C680.955 144.365 686.279 141.185 690.866 137.042C692.549 135.522 694.098 133.898 695.508 132.172C697.94 129.199 699.967 125.914 701.591 122.324C704.153 116.654 705.436 110.367 705.436 103.463C705.436 96.5616 704.153 90.2746 701.591 84.6019Z" fill="#966B28"/>
<path d="M810.906 68.2541V59.0824H822V60.5617H819.485C817.315 60.5617 815.417 61.3014 813.791 62.7807C812.163 64.26 811.349 66.0873 811.349 68.2541H810.906ZM811.349 59.0824V130.977C811.349 134.135 811.447 137.167 811.645 140.074C811.842 142.985 812.187 146.264 812.681 149.912H811.349L804.841 142.072V59.0824H811.349ZM804.841 68.2541C804.742 66.0873 803.903 64.26 802.326 62.7807C800.748 61.3014 798.825 60.5617 796.557 60.5617H794.042V59.0824H805.136V68.2541H804.841ZM734.429 138.67C734.429 140.84 735.242 142.663 736.87 144.142C738.497 145.622 740.394 146.361 742.565 146.361H745.079V147.841H733.985V138.67H734.429ZM727.921 56.8635L809.87 134.083L811.349 149.912L729.4 72.2486L727.921 56.8635ZM727.921 56.8635L734.281 65.1483L734.429 147.841H727.772V75.3548C727.772 70.3259 727.328 64.1631 726.441 56.8635H727.921ZM728.215 138.67V147.841H717.121V146.361H719.636C721.904 146.361 723.827 145.622 725.406 144.142C726.982 142.663 727.772 140.84 727.772 138.67H728.215Z" fill="#966B28"/>
</svg>
