<svg width="498" height="94" viewBox="0 0 498 94" fill="none" xmlns="http://www.w3.org/2000/svg">
<g clip-path="url(#clip0_3_199)">
<mask id="mask0_3_199" style="mask-type:luminance" maskUnits="userSpaceOnUse" x="0" y="0" width="504" height="95">
<path d="M503.433 0.437866H0.798462V94.0558H503.433V0.437866Z" fill="white"/>
</mask>
<g mask="url(#mask0_3_199)">
<path d="M333.417 86.3628L333.102 86.585C333.822 87.0673 334.555 87.5231 335.31 87.9574L335.715 87.5457L333.417 86.3628ZM358.616 53.455V70.9888L356.319 68.9281V53.455H358.616ZM351.444 51.7896C351.369 51.7896 351.296 51.7797 351.225 51.7611L355.668 50.8566L350.51 50.8506C350.51 50.333 350.929 49.9125 351.445 49.9125L364.794 49.9286L358.057 50.5741L366.677 50.5805C366.706 50.6709 366.723 50.7677 366.723 50.8667C366.723 51.3842 366.302 51.806 365.786 51.806L351.444 51.7896ZM357.023 35.6083H358.009V48.4555H357.023V35.6083ZM389.132 71.7799L388.897 71.6194L383.08 67.6045L375.067 76.2256L367.22 72.9921L362.918 74.8795L362.008 74.0555V53.2779L365.783 53.2817C367.114 53.2842 368.196 52.2018 368.196 50.8705C368.199 49.5357 367.117 48.4532 365.789 48.4532L360.868 48.4456C360.782 48.2559 360.618 48.1053 360.409 48.0437C359.905 47.8967 359.446 47.6206 359.081 47.2477C359.459 47.3368 359.764 47.3856 360.037 47.3981C360.463 47.4172 360.852 47.1245 360.927 46.7037C360.996 46.2832 360.742 45.8835 360.348 45.7618C359.87 45.6112 359.435 45.3413 359.081 44.9808C359.464 45.0738 359.764 45.1188 360.04 45.1315C360.463 45.1503 360.855 44.8616 360.927 44.4406C361 44.0163 360.747 43.6205 360.352 43.4953C359.87 43.3444 359.435 43.077 359.084 42.7178C359.465 42.8069 359.767 42.8558 360.044 42.8683C360.468 42.8873 360.858 42.5948 360.93 42.1765C361.003 41.7533 360.749 41.3541 360.355 41.2322C359.874 41.0815 359.437 40.8102 359.088 40.4509C359.47 40.5439 359.77 40.5892 360.047 40.6018C360.471 40.6204 360.858 40.3317 360.931 39.9109C361.003 39.4865 360.753 39.0908 360.358 38.9654C359.877 38.8147 359.442 38.5471 359.091 38.1881C359.47 38.277 359.774 38.3262 360.047 38.3388C360.474 38.3574 360.861 38.0649 360.936 37.6466C361.006 37.2236 360.753 36.8243 360.358 36.7024C359.88 36.5504 359.443 36.2803 359.091 35.9212C359.472 36.014 359.774 36.0594 360.05 36.0719C360.474 36.0906 360.865 35.8019 360.936 35.3811C361.009 34.9568 360.755 34.5612 360.361 34.4355C360.261 34.4027 360.166 34.3677 360.071 34.3263L363.658 30.7259V29.7839L358.64 29.7778L353.615 29.7701V30.7159L354.555 31.6614C355.684 32.7992 356.316 34.3388 356.316 35.9437L356.303 48.4429L351.45 48.4369C350.118 48.433 349.038 49.5167 349.033 50.8481C349.033 52.1816 350.114 53.2653 351.444 53.2653L355.225 53.2718V67.9386L354.854 67.6045L345.174 69.0863L338.993 72.5877L337.781 77.7051L335.675 80.7528L335.361 81.2088L329.985 78.3806L325.412 79.0551L324.984 79.4343C326.022 80.6399 327.142 81.7851 328.339 82.8676C329.754 84.1474 331.241 85.3215 332.815 86.3853L333.549 85.79L336.247 87.0345L339.259 85.0705L335.492 88.0632C337.581 89.2663 339.792 90.2986 342.134 91.1625C343.041 91.5004 343.962 91.8055 344.896 92.0819H373.033C373.973 91.8055 374.899 91.5004 375.819 91.1625C381.079 89.2335 385.698 86.4696 389.677 82.8676C391.136 81.5467 392.48 80.1349 393.703 78.6343L389.132 71.7799ZM333.417 86.3628L333.102 86.585C333.822 87.0673 334.555 87.5231 335.31 87.9574L335.715 87.5457L333.417 86.3628Z" fill="white"/>
<path d="M338.95 75.4184C337.667 75.9646 336.383 76.5107 335.1 77.0569C334.255 76.6386 333.409 76.2221 332.564 75.8039C331.678 76.0825 330.79 76.36 329.904 76.6386C330.148 78.2577 330.395 79.8765 330.641 81.4938C332.672 82.5439 334.703 83.5935 336.734 84.6448C338.532 82.6404 340.33 80.6361 342.125 78.6332C341.065 77.5608 340.009 76.4895 338.95 75.4184Z" fill="white"/>
<path d="M72.017 82.8676H82.5393C83.8225 85.7838 85.5331 87.8637 87.6722 89.1055C89.8087 90.3487 91.8628 90.9693 93.8316 90.9693H94.8579V92.2552H65.9855V90.9693H67.1408C68.765 90.9693 70.2211 90.262 71.5043 88.848C72.7876 87.4328 72.9565 85.4396 72.017 82.8676ZM48.1495 0.437866L86.1323 91.484H75.2251L45.5831 12.6545L48.1495 0.437866ZM66.2425 61.0063H26.0778V57.1484H66.2425V61.0063ZM48.1495 0.437866L49.3036 9.43963L17.0952 91.8693H9.39601L42.2461 13.683C43.1869 11.5418 43.9791 9.69714 44.6207 8.15366C45.2623 6.61017 45.8175 5.11203 46.2885 3.65277C46.7572 2.19611 46.9943 1.12489 46.9943 0.437866H48.1495ZM20.5602 82.8676C19.9601 84.5843 19.8735 86.0413 20.3033 87.2406C20.7307 88.4422 21.4364 89.3618 22.4212 90.0048C23.4022 90.6478 24.4099 90.9693 25.4362 90.9693H26.5917V92.2552H0.798462V90.9693H1.95368C3.91989 90.9693 5.95122 90.3487 8.04896 89.1055C10.1441 87.8637 11.8762 85.7838 13.2457 82.8676H20.5602Z" fill="white"/>
<path d="M148.624 24.4858C149.565 21.9138 149.436 19.9209 148.239 18.5054C147.04 17.0914 145.673 16.3845 144.132 16.3845H143.234V15.0985H167.616V16.3845H166.588C164.794 16.3845 162.951 17.006 161.071 18.2479C159.189 19.4926 157.563 21.5721 156.195 24.4858H148.624ZM123.858 94.0558L122.959 85.1837L152.346 15.484H160.429L130.017 80.8107C129.075 82.8676 128.285 84.6487 127.644 86.1481C127.002 87.6488 126.424 89.1267 125.911 90.5835C125.398 92.0429 125.097 93.1981 125.013 94.0558H123.858ZM123.858 94.0558L88.5694 15.8695H98.7075L126.04 82.6117L123.858 94.0558ZM102.171 24.4858H92.4191C91.1359 21.5721 89.552 19.4926 87.6709 18.2479C85.7888 17.006 83.9919 16.3845 82.2813 16.3845H81.2548V15.0985H107.561V16.3845H106.535C105.08 16.3845 103.775 17.0914 102.621 18.5054C101.466 19.9209 101.315 21.9138 102.171 24.4858Z" fill="white"/>
<path d="M220.87 82.8676H230.622C231.906 85.7838 233.487 87.8635 235.369 89.1055C237.251 90.3487 239.048 90.9693 240.76 90.9693H241.785V92.2552H215.481V90.9693H216.507C217.96 90.9693 219.286 90.262 220.485 88.848C221.683 87.4328 221.81 85.4396 220.87 82.8676ZM199.183 13.2975L234.472 91.4838H224.335L197.001 24.742L199.183 13.2975ZM214.325 66.15H180.319V62.2921H214.325V66.15ZM199.183 13.2975L200.082 22.1701L170.695 91.8693H162.612L193.025 26.5427C193.963 24.4858 194.756 22.7076 195.397 21.2056C196.039 19.7075 196.617 18.228 197.13 16.77C197.643 15.3133 197.943 14.1552 198.029 13.2975H199.183ZM174.418 82.8676C173.475 85.4396 173.603 87.4328 174.802 88.848C175.998 90.262 177.369 90.9693 178.909 90.9693H179.935V92.2552H155.426V90.9693H156.452C158.249 90.9693 160.088 90.3487 161.97 89.1055C163.85 87.8635 165.477 85.7838 166.846 82.8676H174.418Z" fill="white"/>
<path d="M307.358 73.8659L300.301 92.2552H280.795L285.159 88.2691C289.436 88.2691 292.876 87.6488 295.489 86.4041C298.098 85.1633 300.213 83.4467 301.84 81.2602C303.463 79.074 304.876 76.6114 306.075 73.8659H307.358ZM300.172 88.2691L299.915 92.2552H265.396V88.2691H300.172ZM265.269 23.3278V15.0972H274.763V16.3832H273.224C271.171 16.3832 269.394 17.0486 267.899 18.3774C266.4 19.7075 265.654 21.3573 265.654 23.3278H265.269ZM265.654 92.2552H257.44V15.0972H265.654V92.2552ZM257.697 84.0257L259.365 92.2552H248.202V90.9693H249.998C252.135 90.9693 253.89 90.2847 255.259 88.912C256.627 87.542 257.356 85.9118 257.44 84.0257H257.697ZM257.697 23.3278H257.44C257.356 21.3573 256.584 19.7075 255.131 18.3774C253.674 17.0486 251.88 16.3832 249.74 16.3832H248.202V15.0972H257.697V23.3278Z" fill="white"/>
<path d="M388.33 72.7094C387.868 73.5547 387.382 74.3708 386.869 75.1594C386.844 75.1972 386.821 75.236 386.796 75.2713C385.5 77.2491 384.047 79.0463 382.43 80.66C382.343 80.7467 382.257 80.8332 382.17 80.9161C380.358 82.6921 378.349 84.2416 376.139 85.5691C371.007 88.6545 365.273 90.198 358.943 90.198C354.606 90.198 350.535 89.452 346.736 87.9639C346.689 87.9475 346.64 87.9288 346.592 87.906C344.972 87.263 343.401 86.4844 341.877 85.5691C340.301 84.621 338.826 83.5598 337.449 82.3854C337.379 82.3252 337.306 82.2638 337.235 82.1995C336.699 81.7362 336.179 81.254 335.675 80.7528C333.35 78.4449 331.351 75.7636 329.686 72.7094C326.689 67.2238 325.195 60.8782 325.195 53.6775C325.195 46.3922 326.689 40.0266 329.686 34.5799C332.678 29.1374 336.744 24.8713 341.877 21.7843C347.01 18.6989 352.698 17.1554 358.943 17.1554C365.273 17.1554 371.007 18.6989 376.139 21.7843C381.272 24.8713 385.333 29.1374 388.33 34.5799C391.322 40.0266 392.821 46.3922 392.821 53.6775C392.821 60.4059 391.511 66.3889 388.897 71.6192C388.714 71.986 388.525 72.3491 388.33 72.7094ZM398.98 37.2814C396.754 32.3523 393.654 28.0862 389.677 24.4858C385.698 20.8854 381.079 18.1199 375.819 16.1909C370.556 14.262 364.93 13.2975 358.943 13.2975C352.954 13.2975 347.35 14.262 342.134 16.1909C336.914 18.1199 332.316 20.8854 328.339 24.4858C324.361 28.0862 321.259 32.3523 319.036 37.2814C316.809 42.2128 315.699 47.6782 315.699 53.6775C315.699 59.6791 316.809 65.1445 319.036 70.0735C320.588 73.5194 322.573 76.6413 324.984 79.4343C326.022 80.6399 327.142 81.7851 328.339 82.8676C329.754 84.1474 331.241 85.3215 332.815 86.3853C332.91 86.4558 333.005 86.521 333.102 86.585C333.822 87.0673 334.555 87.5231 335.31 87.9574C335.37 87.9967 335.432 88.0317 335.492 88.0632C337.581 89.2663 339.792 90.2986 342.134 91.1625C343.041 91.5004 343.962 91.8053 344.896 92.0819C349.316 93.3964 353.996 94.0557 358.943 94.0557C363.887 94.0557 368.585 93.3964 373.033 92.0819C373.973 91.8053 374.899 91.5004 375.819 91.1625C381.079 89.2335 385.698 86.4696 389.677 82.8676C391.136 81.5466 392.48 80.1349 393.703 78.6343C395.813 76.0498 397.571 73.1942 398.98 70.0735C401.204 65.1445 402.315 59.6791 402.315 53.6775C402.315 47.6782 401.204 42.2128 398.98 37.2814Z" fill="white"/>
<path d="M493.809 23.0703V15.0972H503.433V16.3832H501.252C499.369 16.3832 497.723 17.0262 496.312 18.3122C494.9 19.5981 494.195 21.1867 494.195 23.0703H493.809ZM494.195 15.0972V77.5958C494.195 80.341 494.279 82.977 494.45 85.5039C494.622 88.0343 494.92 90.8849 495.349 94.0557H494.195L488.549 87.2406V15.0972H494.195ZM488.549 23.0703C488.461 21.1867 487.734 19.5981 486.367 18.3122C484.998 17.0262 483.328 16.3832 481.362 16.3832H479.18V15.0972H488.804V23.0703H488.549ZM427.467 84.2831C427.467 86.1693 428.172 87.7543 429.584 89.0403C430.996 90.3263 432.641 90.9692 434.525 90.9692H436.705V92.2552H427.081V84.2831H427.467ZM421.821 13.1683L492.911 80.2957L494.195 94.0557L423.104 26.5427L421.821 13.1683ZM421.821 13.1683L427.338 20.3704L427.467 92.2552H421.692V29.2429C421.692 24.8713 421.307 19.5139 420.538 13.1683H421.821ZM422.077 84.2831V92.2552H412.453V90.9692H414.635C416.602 90.9692 418.27 90.3263 419.639 89.0403C421.006 87.7543 421.692 86.1693 421.692 84.2831H422.077Z" fill="white"/>
</g>
</g>
<defs>
<clipPath id="clip0_3_199">
<rect width="496.311" height="92.7175" fill="white" transform="translate(0.798462 0.296143)"/>
</clipPath>
</defs>
</svg>
