<svg width="171" height="171" viewBox="0 0 171 171" fill="none" xmlns="http://www.w3.org/2000/svg">
<path d="M111.896 93.9218C111.25 94.1405 111.024 95.1712 111.55 95.6126C113.592 97.3244 114.435 93.0631 111.896 93.9218ZM60.2733 93.7772C59.9862 94.01 59.8615 94.4141 59.9074 94.7706C59.9748 95.2965 60.4038 95.6463 60.8023 95.7673C61.3098 95.9212 61.9608 95.763 62.2445 95.278C62.4029 95.0072 62.4323 94.659 62.3184 94.371C62.0363 93.6572 60.8701 93.2931 60.2733 93.7772ZM96.9901 93.882C97.4581 93.391 97.2869 92.3377 96.6009 91.9839C95.929 91.6375 95.0144 92.092 94.8534 92.712C94.7385 93.1548 95.0424 93.5487 95.0944 93.6131C95.5294 94.1564 96.5173 94.3781 96.9901 93.882ZM78.4782 91.9066C78.1965 91.6247 77.8076 91.6081 77.6819 91.6081C77.5846 91.6041 77.2322 91.6017 76.933 91.8549C76.5244 92.2006 76.5619 92.7292 76.569 92.8249C76.575 92.9109 76.6138 93.4605 77.0741 93.7442C77.4952 94.0033 78.0513 93.907 78.392 93.607C78.8836 93.1744 78.9069 92.3356 78.4782 91.9066ZM103.843 90.4699C99.5945 91.1755 101.45 98.4967 105.464 96.4386C108.393 94.9364 106.856 89.9691 103.843 90.4699ZM68.355 90.4786C64.1713 91.5118 66.5335 98.7484 70.4294 96.3179C73.4345 94.4435 71.3028 89.7504 68.355 90.4786ZM84.0947 94.6574C87.0048 97.9445 91.912 92.7012 88.346 89.9734C85.1734 87.5466 81.7036 91.9566 84.0947 94.6574ZM67.2681 88.1107C66.3295 85.2893 64.8702 81.1184 61.1686 81.3468C60.5169 81.387 57.2884 82.6314 56.876 83.0583C55.4105 84.575 55.7472 88.3861 57.3643 89.8135L67.2681 88.1107ZM106.219 82.9205C106.589 82.814 106.817 81.9392 106.488 81.3718C106.459 81.3222 106.16 80.8246 105.717 80.8724C105.396 80.9075 105.162 81.211 105.095 81.4712C104.918 82.1602 105.781 83.0468 106.219 82.9205ZM67.5537 80.9024C66.5584 80.2052 65.6621 82.5462 67.4157 82.9132C68.1175 82.7143 67.7213 81.02 67.5537 80.9024ZM86.2248 79.4898C85.0248 79.79 85.1043 82.0717 86.9934 81.4411C88.014 81.1009 87.3317 79.2132 86.2248 79.4898ZM94.0262 79.2399C93.2747 79.3665 90.5063 80.5638 90.1955 81.1919L90.1861 86.6786L99.8719 87.4035C101.081 84.9348 104.594 82.3918 101.297 80.1995C99.5012 79.0053 99.2276 79.7941 97.7513 79.6486C96.3798 79.5138 95.6982 78.9578 94.0262 79.2399ZM83.1391 86.9584V81.6222C81.5231 80.0003 79.295 78.969 76.9345 79.1681C75.6925 79.2724 75.1009 79.3885 73.761 79.4349C72.3603 79.4831 69.9294 81.0763 69.8385 82.4855C69.7468 83.9065 71.9054 86.2258 72.6571 87.5019L83.1391 86.9584ZM49.0931 79.1717C48.772 79.9353 49.6285 82.0215 50.537 81.6372C51.6254 81.1773 50.5299 78.5703 49.0931 79.1717ZM124.11 78.8834C122.748 78.2919 121.442 81.2501 122.531 81.4789C123.543 81.6913 124.429 79.7793 124.11 78.8834ZM107.625 73.4407C106.214 72.5517 104.866 75.142 106.134 76.0158C107.635 77.0486 108.322 73.8794 107.625 73.4407ZM66.9071 73.4777C65.5205 71.8437 64.4248 75.1023 65.5216 75.8698C67.1187 76.9886 67.7398 74.459 66.9071 73.4777ZM85.4898 72.0021C84.884 72.5292 85.0141 73.5515 85.4258 74.1435C85.4982 74.2474 85.8696 74.7808 86.4063 74.7888C87.2805 74.8023 88.2668 73.4184 87.82 72.5062C87.457 71.7648 86.1806 71.4013 85.4898 72.0021ZM103.624 78.8804C102.647 75.6858 103.189 73.2493 104.831 70.4241C105.182 69.8195 106.306 68.7898 106.455 68.288C106.567 67.9134 106.229 64.9235 106.097 64.7291C105.57 63.9516 101.868 64.9666 100.88 65.0329C97.5434 65.2581 94.9976 64.3563 91.932 64.1734C90.941 64.1145 90.0382 63.9406 90.05 65.1677C90.0591 66.0934 90.2505 68.2544 90.3771 69.1945C90.5217 70.2698 91.2724 71.4266 91.4366 72.4605C91.7577 74.4822 91.2835 76.1255 90.064 77.7252C93.1228 76.9175 96.0759 75.7607 97.9987 79.1647C98.5573 77.5772 100.012 77.1448 101.618 77.5735L103.624 78.8804ZM82.849 78.3038C82.6694 77.1698 81.767 76.2691 81.5351 75.1491C81.0038 72.5779 81.7906 70.729 83.1257 68.6288L83.1525 64.3052C80.4734 63.7188 77.8615 64.8908 75.2161 65.0485C72.1884 65.2291 69.4101 64.5177 66.4175 64.4749L65.8692 67.7129C68.1668 70.0528 70.2708 73.2556 69.8417 76.6963C69.74 77.5122 69.1395 78.2724 69.2923 79.1705C70.5369 77.3411 73.8435 75.919 74.4868 78.8816C75.5487 79.1171 75.5631 78.133 76.2246 77.5944C77.4669 76.5836 79.4648 76.7034 80.8993 77.2272C81.7619 77.5418 82.0349 78.1767 82.849 78.3038ZM122.856 64.5619C119.219 60.5941 114.013 61.9858 109.705 63.734C110.123 64.6007 110.453 65.6695 110.548 66.6258C110.839 69.5652 110.798 75.1993 109.692 77.8795C109.358 78.6885 108.652 79.2001 108.533 80.0357C111.316 77.9126 113.334 78.9592 114.301 82.0522C109.17 80.2261 107.431 83.0853 105.883 87.3472C105.784 87.6184 105.452 87.6757 105.932 87.9693C107.501 88.93 113.042 88.6246 115.056 89.8354C116.24 90.2802 117.036 87.952 117.167 87.0857C117.495 84.9308 116.817 82.6402 114.592 81.9126C115.266 80.6379 116.484 80.1227 117.757 81.0527C118.56 81.6394 118.305 82.7258 119.205 82.6327C119.325 80.6877 120.569 78.3519 121.904 76.9643C122.527 76.3173 125.067 74.8302 125.21 74.3555C125.531 70.8861 125.315 67.2455 122.856 64.5619ZM62.6539 63.3074C57.5789 62.3999 53.0648 60.1146 49.2606 65.0616C47.8174 66.9385 46.2106 72.208 47.3659 74.3319C47.5518 74.6733 50.3985 76.3609 51.0812 77.0374C52.0809 78.0285 53.0447 79.5916 53.5623 80.9018C53.7325 81.3323 53.8379 82.7608 54.0007 82.9192C54.5658 83.4681 54.745 81.7947 55.0146 81.4851C56.5418 79.7291 58.8527 82.1243 59.1892 81.7677C59.0366 79.2668 61.4112 78.1137 63.5156 79.4589C62.2604 74.0869 60.743 68.7446 62.6539 63.3074ZM104.489 61.8692C102.987 61.0049 101.926 60.2911 100.056 60.4442C98.7665 60.5499 94.7002 61.4312 95.0303 63.1241C95.2311 64.1548 98.2191 63.6612 99.1171 63.5587C100.097 63.4468 103.246 62.9816 103.993 62.6638C104.39 62.4949 104.577 62.3271 104.489 61.8692ZM70.9444 60.4911C70.1683 60.6167 68.5667 61.3574 68.131 62.005C67.9288 62.3052 67.6816 62.2284 68.1299 62.5896C70.7947 63.0139 73.6684 63.7704 76.36 63.8788C80.0822 64.0289 79.3206 62.7086 76.5723 61.6498C75.0051 61.046 72.582 60.2259 70.9444 60.4911ZM125.841 88.9758C124.911 89.003 125.187 87.9983 124.126 87.6659C120.977 86.6803 121.214 88.9404 120.055 89.6828C118.722 90.5367 117.382 89.6633 118.113 92.8121C118.422 94.1367 119.672 94.0427 119.502 96.3276C119.3 99.0359 116.964 98.7832 117.472 101.381C115.197 100.209 112.603 99.5647 110.079 99.1121C99.606 97.2338 87.2548 97.3709 76.6437 97.9162C69.6817 98.2737 62.1391 98.4422 55.7311 101.38C55.644 98.365 53.4161 98.3555 54.125 95.0176C54.309 94.1516 55.0146 93.3749 55.1356 92.5641C55.6313 89.2417 54.0502 90.5501 52.5661 89.6854C51.3741 88.9906 51.1135 86.3745 48.4307 88.1C48.0286 88.3585 48.0964 89.1399 47.3618 88.9762C47.3479 87.9874 47.0292 87.0958 47.5603 86.176C48.0084 85.3996 49.1986 85.4521 49.1019 84.8085C49.0112 84.2071 47.1788 81.5136 46.7329 80.5186C40.2555 66.0655 48.8902 55.8448 63.9439 61.581C67.1926 59.0512 70.5558 57.4836 74.7187 58.5993C76.1596 58.9855 77.8781 60.2621 79.2367 60.4287C81.9351 60.7585 90.4045 60.7643 93.0685 60.3967C94.3251 60.2231 95.7899 59.2857 97.0514 58.8975C101.701 57.4678 104.704 58.6394 108.391 61.5767C113.586 60.3276 118.58 58.3564 123.341 61.9134C127.318 64.8854 128.346 68.7423 127.857 73.5418C127.438 77.6652 126.423 81.9231 123.252 84.7951C125.858 85.6829 126.11 86.1462 125.841 88.9758Z" fill="white"/>
<path d="M109.672 111.205C104.471 109.982 99.0186 109.962 93.6736 109.742C85.5761 109.409 76.6586 109.391 68.5715 110.326C66.9799 110.51 64.7792 110.668 63.5243 111.62C63.5243 112.575 71.7685 113.405 72.8987 113.492C82.111 114.198 97.9583 114.484 106.921 112.895C107.861 112.728 108.735 112.234 109.666 112.031L109.672 111.205ZM56.3375 111.732L56.3373 110.931C56.8777 110.099 65.6031 108.76 67.1275 108.594C76.5232 107.571 88.5037 107.625 98.0109 108.003C101.54 108.143 113.272 109.006 115.949 110.549C118.669 112.115 111.892 113.298 110.949 113.461C98.6197 115.598 79.0713 115.424 66.5513 114.069C63.1831 113.704 59.4087 113.12 56.3375 111.732Z" fill="white"/>
<path d="M90.3526 37.0581L87.4702 43.1151L93.238 40.2308C93.2525 42.4664 93.2669 44.7018 93.2815 46.9372C91.2476 45.952 89.2136 44.967 87.1801 43.9821C87.4483 44.7108 87.7833 45.499 88.2045 46.3239C88.9496 47.783 89.7736 48.9827 90.5328 49.9356C89.9923 49.9211 89.4522 49.9063 88.9118 49.8917C90.2519 51.5884 91.2884 52.6188 90.1215 54.8545C89.6874 55.686 88.72 56.0214 88.6229 56.9589H92.3738L92.2463 59.2864L81.449 59.5158C80.1347 56.1894 82.4966 57.0145 84.8688 56.9589C84.8475 56.0202 83.678 55.6562 83.3571 54.8677C82.5936 52.9899 83.4265 51.1779 84.5818 49.7522C84.0402 49.7414 83.4987 49.7307 82.9572 49.7199C83.6058 48.867 84.3252 47.7719 84.9678 46.4281C85.4404 45.4393 85.7782 44.5117 86.023 43.6936L80.2548 46.5747C80.2548 44.2681 80.2551 41.9615 80.2551 39.6555L86.3114 42.8256L83.4276 37.0581H90.3526Z" fill="white"/>
<path d="M115.518 106.022C115.02 106.271 114.274 105.819 114.262 105.376C114.255 105.128 114.478 104.915 114.666 104.822C115.122 104.595 115.825 104.842 115.916 105.289C115.973 105.571 115.776 105.893 115.518 106.022ZM112.818 105.956C111.752 106.635 110.001 104.991 111.412 104.111C112.767 103.267 113.638 105.433 112.818 105.956ZM107.701 105.384C106.824 104.832 108.154 102.285 109.422 103.81C110.355 104.933 108.446 105.853 107.701 105.384ZM103.893 102.946L105.226 103.096L105.312 104.797C103.657 105.735 103.167 104.338 103.893 102.946ZM100.903 104.284L99.327 104.521L99.1295 102.809L101.03 102.533L100.903 104.284ZM96.4311 104.139C94.9033 105.215 94.1448 102.824 95.0088 102.287C96.2798 101.495 97.4097 103.45 96.4311 104.139ZM90.6805 104.224C89.8168 103.686 90.5753 101.296 92.1031 102.371C93.0816 103.06 91.9518 105.015 90.6805 104.224ZM86.0775 103.483C85.6681 102.082 86.8205 101.453 87.6812 102.32C88.9575 103.605 86.5887 105.234 86.0775 103.483ZM83.0978 104.224C81.3219 105.353 80.5135 101.659 82.6486 102.292C83.5111 102.547 83.5789 103.918 83.0978 104.224ZM78.7663 104.221C77.7218 104.868 76.1336 103.787 77.0498 102.659C78.2534 101.176 79.8272 103.564 78.7663 104.221ZM73.2414 104.507C72.4119 104.265 72.0779 102.855 72.9369 102.571C75.0186 101.883 75.0577 105.036 73.2414 104.507ZM68.4063 104.715C67.6202 103.413 68.3103 102.478 69.829 102.862L70.1554 104.841L68.4063 104.715ZM64.2185 105.151C63.61 104.113 64.9609 102.88 65.8477 103.523L66.1163 105.42L64.2185 105.151ZM60.6588 105.971L60.7598 104.247L62.377 104.109L62.8255 105.717C62.1711 106.25 61.4186 106.168 60.6588 105.971ZM59.3605 106.598L57.765 106.843L57.771 104.866C59.2937 104.57 60.4876 105.127 59.3605 106.598ZM116.702 106.136C116.793 106.052 116.914 105.918 117.039 105.704C117.636 104.089 117.772 103.161 116.034 102.389C112.072 100.629 101.166 99.8298 96.5682 99.6381C86.7164 99.2266 66.0866 99.0383 57.1763 102.403C56.1826 102.778 55.7485 102.91 55.7156 104.127C55.6666 105.899 56.7004 105.581 56.8901 106.432C57.1772 107.716 56.197 107.427 56.0393 107.907C55.8598 108.452 56.3562 109.165 56.3072 109.745C59.2412 108.682 62.2941 108.105 65.3972 107.729C76.3588 106.402 90.6633 106.439 101.746 107.152C106.747 107.474 112.139 108.247 116.896 109.744L116.365 106.568C116.403 106.494 116.466 106.386 116.566 106.272C116.623 106.207 116.669 106.167 116.702 106.136Z" fill="white"/>
<path d="M34.1242 99.3621C33.0354 100.281 31.948 101.315 31.1332 102.484C30.3431 103.643 29.7564 104.967 29.5205 106.525C29.158 108.499 29.6593 110.514 30.1031 112.582C30.1833 112.949 30.2628 113.343 30.155 113.665C29.9936 114.151 29.4451 114.299 28.9479 114.141C28.4513 113.984 27.9941 113.595 27.5499 113.218C25.0119 111.209 22.7593 108.979 20.229 106.814C18.0023 104.523 15.4033 102.294 13.2103 99.8915C13.8027 100.459 14.2748 102.059 15.0223 103.627C15.707 105.216 16.3606 106.874 16.8061 107.701C17.533 108.98 18.4194 110.173 19.2578 111.349C19.6862 111.932 20.1205 112.504 20.5623 113.06C21.0027 113.616 21.5394 114.108 22.0334 114.61C22.7862 115.347 23.7274 116.239 24.7467 117.087C25.734 117.957 27.0094 118.638 28.1258 119.179C30.4195 120.237 32.4989 120.362 33.6234 118.54C34.3718 117.342 34.4907 115.716 34.3671 114.197C34.3044 113.436 34.1841 112.685 34.0614 111.945C33.9813 111.176 33.9249 110.401 33.9068 109.651C33.8865 108.613 33.9661 107.607 34.0901 106.631C34.203 105.663 34.5086 104.646 34.7186 103.7C34.948 102.745 35.1648 101.816 35.3099 100.905C35.4457 99.9979 35.6768 99.0396 35.6931 98.1183C35.168 98.5162 34.6407 98.9284 34.1242 99.3621Z" fill="white"/>
<path d="M28.8758 93.9514C27.3959 94.9328 26.0086 96.1383 25.3516 98.0267C24.8885 99.2162 25.0207 100.489 25.0095 101.802C25.0132 102.034 25.0132 102.281 24.9065 102.46C24.7464 102.73 24.3898 102.746 24.1054 102.588C23.8204 102.43 23.5902 102.141 23.3661 101.862C22.7724 101.09 22.0702 100.353 21.498 99.5746C20.9188 98.7987 20.316 98.0294 19.6905 97.2668C19.0654 96.5046 18.4184 95.7485 17.7512 94.9994C17.1569 94.2362 16.5493 93.4779 15.9175 92.729C16.2248 93.0942 16.4795 94.0383 16.7009 95.0216C16.983 95.9931 17.2836 96.9952 17.4909 97.5088C18.1917 99.0986 18.7922 100.692 19.8304 102.048C20.5514 103.073 21.6486 104.549 22.799 105.498C24.0276 106.421 25.3275 106.792 26.2694 105.896C26.9117 105.299 27.1449 104.377 27.323 103.415C27.5082 102.45 27.5479 101.458 27.7039 100.52C28.0485 97.9488 29.6741 95.7346 29.9251 93.2923C29.5757 93.5032 29.2233 93.721 28.8758 93.9514Z" fill="white"/>
<path d="M50.5947 118.436C50.0669 120.031 49.6529 121.692 49.5393 123.408C49.4511 125.085 49.7239 126.734 50.4788 128.434C51.3751 130.623 53.2118 132.224 54.9816 134.025C55.2936 134.352 55.6461 134.655 55.7657 135.019C55.9431 135.575 55.5009 136.099 54.8943 136.306C54.2858 136.52 53.5963 136.395 52.9069 136.317C45.3589 135.488 37.5342 134.053 29.8685 131.912C30.8222 132.151 32.4511 133.362 34.0873 134.658C35.8015 135.861 37.5776 137.094 38.5701 137.651L39.7394 138.287L40.9682 138.818C41.7877 139.165 42.6072 139.496 43.4247 139.81C44.2432 140.122 45.0553 140.424 45.8722 140.69C46.7172 140.904 47.5586 141.099 48.394 141.271C49.644 141.508 51.152 141.854 52.7624 141.961C54.3895 142.031 56.0599 142 57.5298 141.775C58.9877 141.594 60.3053 141.021 61.1847 140.293C62.071 139.554 62.5401 138.583 62.4572 137.341C62.352 135.681 61.3055 134.216 60.2076 132.725C59.6465 132.009 59.0411 131.341 58.4426 130.687C57.8397 130.044 57.2511 129.399 56.7693 128.635C55.4126 126.588 54.4953 124.532 53.8086 122.294C53.4434 121.214 53.0882 120.172 52.6781 119.201C52.3234 118.145 51.9234 117.146 51.3964 116.238C51.1157 116.955 50.8427 117.688 50.5947 118.436Z" fill="white"/>
<path d="M42.1274 116.364C41.1523 118.3 40.4931 120.331 41.042 122.574C41.3836 123.964 42.1081 125.39 43.0004 126.613C43.1524 126.839 43.3104 127.082 43.3179 127.326C43.3293 127.693 42.9813 127.934 42.5931 127.958C42.2053 127.982 41.7873 127.842 41.3817 127.707C40.241 127.373 39.2258 126.881 38.1201 126.492C37.0298 126.085 35.9171 125.696 34.7852 125.326C32.6468 124.459 30.4181 123.662 28.1635 122.9C29.2417 123.287 31.6848 126.055 32.7071 126.898C34.3977 128.114 36.1732 129.192 37.9359 130.091C39.31 130.688 41.3924 131.448 43.1587 131.667C44.9289 131.899 46.5072 131.368 46.8539 129.9C47.1007 128.91 46.7593 127.827 46.3509 126.733C45.9213 125.666 45.3319 124.669 44.8965 123.653C44.2574 122.297 44.1121 120.68 43.8465 119.255C43.6012 117.802 43.3088 116.447 42.8215 115.051C42.5849 115.479 42.3498 115.917 42.1274 116.364Z" fill="white"/>
<path d="M30.6787 76.5194C29.3959 76.7873 28.0772 77.1469 26.8951 77.7296C25.7529 78.3168 24.7022 79.1233 23.8308 80.2676C23.2893 80.9778 22.8398 81.7913 22.4359 82.6566C22.1029 83.5222 21.8481 84.4389 21.5754 85.3598C21.4799 85.6874 21.3724 86.0354 21.1445 86.2419C20.8028 86.553 20.2957 86.4209 19.9645 86.0715C19.6329 85.7224 19.4348 85.2089 19.2417 84.711C18.9735 84.0321 18.7025 83.3478 18.4293 82.6574C18.2048 81.9733 17.9791 81.2832 17.7509 80.587C17.2849 79.2014 16.7694 77.8019 16.2525 76.3921C15.842 74.992 15.4003 73.5774 14.9313 72.15C14.6926 71.4393 14.4517 70.7226 14.2085 69.9995C13.9817 69.2837 13.8081 68.5765 13.5954 67.8602C13.8466 69.2231 13.1588 73.907 13.1167 75.6015C13.1242 76.9268 13.3266 78.2545 13.4803 79.5488C13.6791 80.8448 13.8188 82.1145 14.1963 83.342C14.7903 85.1681 15.5977 87.8206 16.9433 89.6736C18.3372 91.5384 19.9598 92.591 21.6726 91.6762C22.8018 91.0792 23.6037 89.8549 24.1601 88.5974C24.7571 87.3338 25.3064 85.9711 25.9164 84.7552C26.3665 83.9149 26.814 83.1433 27.4094 82.414C28.0139 81.6848 28.6382 80.9984 29.2405 80.3252C29.8429 79.6516 30.4232 78.9915 30.9392 78.3104C31.4618 77.6301 32.062 76.9474 32.4869 76.1967C31.8897 76.2907 31.2841 76.3944 30.6787 76.5194Z" fill="white"/>
<path d="M28.823 69.8058C27.1951 69.9678 25.5443 70.3473 24.1812 71.584C23.3795 72.3613 22.8611 73.4295 22.2926 74.4828C22.1937 74.6706 22.0847 74.8687 21.9201 74.9661C21.6729 75.112 21.38 74.9684 21.221 74.7182C21.0619 74.4673 21.0044 74.1354 20.9477 73.8143C20.7917 72.9341 20.6124 72.051 20.4116 71.1648C20.2684 70.29 20.1367 69.4189 19.9641 68.5404C19.7963 67.6633 19.6073 66.7831 19.3984 65.9014C19.2916 65.4646 19.1837 65.0239 19.0748 64.579C18.9893 64.1515 18.9034 63.7198 18.8164 63.2848C18.9113 64.0996 18.1997 66.7947 18.0866 67.7934C18.0033 68.5741 17.9366 69.3516 17.8958 70.1209C17.8497 70.8884 17.9557 71.6729 18.0266 72.4284C18.1556 73.5579 18.3875 75.2101 18.8929 76.471C19.4587 77.7437 20.3513 78.6164 21.4966 78.3168C22.2774 78.1241 22.8559 77.4866 23.4375 76.7941C24.0108 76.1003 24.4801 75.3182 25.02 74.6294C25.7814 73.6822 26.6065 72.9034 27.5067 72.153C28.4307 71.4064 29.3052 70.664 29.9612 69.7198C29.5844 69.7485 29.2033 69.7771 28.823 69.8058Z" fill="white"/>
<path d="M36.7008 56.0858C34.6373 55.6027 32.4517 55.3948 30.2794 56.4073C28.8994 57.0189 27.8949 58.1916 26.7537 59.2931C26.5565 59.4916 26.3425 59.7005 26.0968 59.7622C25.7279 59.8548 25.4132 59.5667 25.3097 59.1909C25.2056 58.816 25.2619 58.3742 25.3155 57.9463C25.4449 56.7821 25.5763 55.5983 25.7104 54.392C25.8971 53.2331 26.0599 52.0558 26.2013 50.8622C26.4153 48.4283 26.8608 46.1417 27.1146 43.7239C26.9932 44.9023 24.6072 47.8292 24.1614 49.1474C23.3398 51.1122 22.4954 53.0238 22.1786 55.079C22.0349 55.8291 21.8714 56.7564 21.7639 57.7192C21.71 58.2006 21.6702 58.6907 21.6527 59.1718C21.6591 59.663 21.711 60.1554 21.778 60.616C22.0574 62.4696 22.8072 63.8587 24.3953 63.8795C25.4402 63.8964 26.4986 63.3303 27.3979 62.6364C28.2508 61.9207 29.2199 61.1574 30.1375 60.4997C30.7861 60.0527 31.4577 59.6776 32.1307 59.3389L33.1392 58.8533L34.2182 58.439C35.6425 57.8903 36.9913 57.3411 38.1317 56.4609C37.6626 56.3281 37.1855 56.1995 36.7008 56.0858Z" fill="white"/>
<path d="M37.7234 50.3413C36.4655 49.9292 35.1243 49.6704 33.729 50.1549C32.8623 50.4555 32.0448 51.0206 31.228 51.5777C31.0763 51.6723 30.9473 51.7939 30.7919 51.8071C30.5645 51.8306 30.396 51.6184 30.3593 51.3721C30.3141 51.1204 30.4074 50.87 30.4847 50.6186C30.9203 49.2505 31.2853 47.8436 31.5855 46.4069C31.8416 44.9333 32.2602 43.6168 32.4879 42.1756C32.3866 42.8849 30.7684 44.4481 30.4355 45.208C29.8299 46.3219 29.2736 47.4521 28.8372 48.5901C28.4787 49.4136 28.1218 50.7298 28.1036 51.8687C28.0709 53.0033 28.3624 53.9384 29.3276 54.147C29.9624 54.2858 30.6787 54.0648 31.3186 53.7388C31.9713 53.4205 32.5243 52.9598 33.1955 52.6568C35.0485 51.8172 36.9936 51.6729 38.6106 50.6627C38.3174 50.5498 38.0151 50.435 37.7234 50.3413Z" fill="white"/>
<path d="M49.7209 41.5404C48.2315 40.457 46.6107 39.618 44.589 39.7042C43.3411 39.7675 42.0152 40.1585 40.8291 40.7138C40.6124 40.8055 40.3799 40.8994 40.1716 40.8651C39.8587 40.8136 39.7123 40.4769 39.7559 40.143C39.799 39.8098 39.986 39.4785 40.1662 39.157C41.1637 37.4075 42.2699 35.7841 43.2245 33.9691C44.2008 32.1815 45.2784 30.5476 46.2125 28.7243C45.7606 29.6152 42.9924 31.1308 42.1907 31.948C40.9267 33.2011 39.7272 34.4944 38.6943 35.8376C37.2441 38.014 34.8375 42.2102 37.3634 43.3984C38.1319 43.7583 39.1961 43.7456 40.1669 43.552C41.1428 43.363 42.0904 43.0235 43.0297 42.8164C44.2944 42.4909 45.6972 42.617 46.9736 42.6167C48.2848 42.6614 49.4723 42.564 50.7483 42.3323C50.4148 42.0654 50.073 41.7988 49.7209 41.5404Z" fill="white"/>
<path d="M52.454 37.3263C51.5884 36.6038 50.6116 35.9751 49.3588 35.9131C48.5809 35.8744 47.7588 36.0592 46.941 36.2369C46.7958 36.2686 46.6404 36.2995 46.5129 36.2568C46.3216 36.192 46.2631 35.9747 46.3213 35.7807C46.3799 35.5862 46.5279 35.4092 46.6698 35.2375C48.2279 33.3579 49.574 31.2181 50.8922 29.236C50.5937 29.7594 48.8384 30.4674 48.3431 30.9593C47.5219 31.64 46.7327 32.3487 46.0325 33.1035C44.9256 34.1618 43.2131 36.6456 44.5895 37.5931C45.0368 37.9113 45.6648 37.9695 46.2694 37.918C46.8614 37.8465 47.5071 37.7546 48.1295 37.7263C49.8545 37.6528 51.4388 38.157 53.0538 37.8574C52.8554 37.6731 52.6555 37.4927 52.454 37.3263Z" fill="white"/>
<path d="M63.7997 33.6075C62.9916 32.508 61.9894 31.3816 60.5448 30.9884C59.6517 30.7551 58.6437 30.7783 57.6405 30.7953C57.4624 30.7979 57.2723 30.7979 57.1341 30.7168C56.9259 30.594 56.9124 30.3211 57.0311 30.1034C57.1496 29.8858 57.3687 29.7099 57.58 29.5386C59.8632 27.5597 62.1556 25.7454 64.2572 23.5827C63.745 24.1044 61.5012 24.6282 60.738 24.9529C59.5326 25.4121 58.419 26.104 57.3912 26.8399C56.6266 27.3872 55.5225 28.2194 54.8071 29.0968C54.1071 30.023 53.8228 31.0298 54.5015 31.7543C54.9556 32.2523 55.659 32.4238 56.4049 32.5704C57.1493 32.7109 57.9186 32.7382 58.6498 32.8545C59.6597 33.0152 60.5935 33.3468 61.51 33.6395C62.4265 33.9304 63.3694 34.3255 64.3503 34.4034L63.7997 33.6075Z" fill="white"/>
<path d="M66.7875 31.1612C66.3162 30.4172 65.7598 29.7786 64.8777 29.4515C64.3307 29.2537 63.7036 29.2065 63.0826 29.1541C62.9728 29.1451 62.8552 29.1333 62.7754 29.0743C62.655 28.985 62.6649 28.8149 62.7513 28.6875C62.8376 28.5599 62.9836 28.4648 63.1234 28.3721C63.8914 27.8653 64.6337 27.3129 65.3481 26.7202C66.0648 26.1408 66.7755 25.6303 67.4396 25.0202C67.1165 25.3189 65.7311 25.4711 65.2644 25.6619C64.5374 25.9691 63.8258 26.3034 63.1636 26.6913C62.1681 27.2706 60.3205 28.453 61.0672 29.4899C61.3082 29.8326 61.7462 30.0475 62.1975 30.181C62.6486 30.314 63.1264 30.3774 63.5773 30.4933C64.8279 30.8307 65.8451 31.4948 67.105 31.6841L66.7875 31.1612Z" fill="white"/>
<path d="M75.7054 29.2179C75.3975 28.5139 74.9965 27.8303 74.2582 27.3936C73.7995 27.1224 73.2463 26.9693 72.7003 26.8136C72.6033 26.7859 72.5003 26.7546 72.4385 26.6886C72.3456 26.5893 72.3816 26.4417 72.4797 26.3456C72.5774 26.2492 72.7226 26.1915 72.8621 26.1353C74.3936 25.52 75.8595 24.7251 77.2207 23.7883C76.8896 24.0162 75.6387 24.0488 75.1943 24.1392C74.5008 24.2796 73.816 24.4468 73.166 24.6692C72.6825 24.8342 71.9742 25.0948 71.4549 25.4436C70.9373 25.8222 70.6139 26.3129 70.8525 26.8106C71.0105 27.1507 71.3602 27.3565 71.742 27.5556C72.1235 27.7524 72.5411 27.8929 72.9265 28.0749C73.9917 28.5766 74.8037 29.3938 75.9099 29.714L75.7054 29.2179Z" fill="white"/>
<path d="M99.8834 149.817C99.7437 149.818 99.6008 149.803 99.4695 149.783C89.1835 148.204 78.9739 145.789 69.1595 142.31C59.0879 138.74 49.1204 134.002 40.9622 126.994C39.8839 126.067 38.8379 125.102 37.8398 124.09C29.3287 115.481 25.1348 106.045 25.1348 106.045C23.5237 102.421 20.6829 95.0064 20.2963 85.1623C20.0143 77.989 21.0653 70.7584 23.4471 63.9821C25.8185 57.2036 29.5 50.8936 34.2111 45.4849C43.5962 34.6147 57.2221 27.5475 71.5131 26.175C71.7322 26.164 71.9223 26.2954 71.9378 26.4683C71.9525 26.6404 71.7908 26.7887 71.5755 26.8001C57.4485 28.2218 44.0329 35.2657 34.83 46.0217C30.2103 51.3736 26.614 57.6042 24.311 64.2832C21.9977 70.9603 20.9973 78.0733 21.3055 85.1199C21.6025 92.1685 23.2454 99.1613 26.144 105.593C30.1728 114.533 35.4888 120.032 38.2246 122.804C42.522 127.158 47.4618 130.851 52.7987 133.834C64.5063 140.377 77.9448 144.031 90.9979 146.775C93.794 147.363 96.6029 147.889 99.422 148.354C99.7381 148.406 100.068 148.464 100.325 148.654C100.583 148.844 100.74 149.211 100.588 149.494C100.456 149.74 100.177 149.814 99.8834 149.817Z" fill="white"/>
<path d="M138.402 99.3621C139.49 100.281 140.578 101.315 141.393 102.484C142.183 103.643 142.77 104.967 143.006 106.525C143.368 108.499 142.868 110.514 142.424 112.582C142.343 112.949 142.263 113.343 142.371 113.665C142.533 114.151 143.082 114.299 143.578 114.141C144.075 113.984 144.532 113.595 144.977 113.218C147.514 111.209 149.766 108.979 152.298 106.814C154.523 104.523 157.123 102.294 159.316 99.8915C158.724 100.459 158.251 102.059 157.504 103.627C156.819 105.216 156.165 106.874 155.72 107.701C154.993 108.98 154.107 110.173 153.268 111.349C152.841 111.932 152.406 112.504 151.964 113.06C151.524 113.616 150.987 114.108 150.492 114.61C149.74 115.347 148.798 116.239 147.779 117.087C146.793 117.957 145.517 118.638 144.4 119.179C142.107 120.237 140.027 120.362 138.903 118.54C138.155 117.342 138.036 115.716 138.159 114.197C138.221 113.436 138.342 112.685 138.465 111.945C138.545 111.176 138.601 110.401 138.62 109.651C138.639 108.613 138.56 107.607 138.436 106.631C138.324 105.663 138.018 104.646 137.807 103.7C137.579 102.745 137.362 101.816 137.216 100.905C137.08 99.9979 136.849 99.0396 136.833 98.1183C137.358 98.5162 137.886 98.9284 138.402 99.3621Z" fill="white"/>
<path d="M143.65 93.9514C145.131 94.9328 146.517 96.1383 147.175 98.0267C147.638 99.2162 147.506 100.489 147.516 101.802C147.513 102.034 147.513 102.281 147.62 102.46C147.78 102.73 148.136 102.746 148.42 102.588C148.706 102.43 148.936 102.141 149.16 101.862C149.754 101.09 150.456 100.353 151.029 99.5746C151.607 98.7987 152.21 98.0294 152.836 97.2668C153.46 96.5046 154.108 95.7485 154.775 94.9994C155.369 94.2362 155.976 93.4779 156.608 92.729C156.301 93.0942 156.046 94.0383 155.826 95.0216C155.543 95.9931 155.243 96.9952 155.036 97.5088C154.334 99.0986 153.734 100.692 152.696 102.048C151.975 103.073 150.877 104.549 149.726 105.498C148.499 106.421 147.199 106.792 146.257 105.896C145.615 105.299 145.381 104.377 145.203 103.415C145.019 102.45 144.979 101.458 144.823 100.52C144.478 97.9488 142.852 95.7346 142.602 93.2923C142.951 93.5032 143.303 93.721 143.65 93.9514Z" fill="white"/>
<path d="M121.932 118.436C122.459 120.031 122.873 121.692 122.987 123.408C123.075 125.085 122.802 126.734 122.047 128.434C121.152 130.623 119.315 132.224 117.545 134.025C117.232 134.352 116.88 134.655 116.76 135.019C116.583 135.575 117.025 136.099 117.632 136.306C118.24 136.52 118.93 136.395 119.619 136.317C127.168 135.488 134.992 134.053 142.657 131.912C141.704 132.151 140.075 133.362 138.439 134.658C136.724 135.861 134.948 137.094 133.957 137.651L132.787 138.287L131.558 138.818C130.738 139.165 129.919 139.496 129.102 139.81C128.282 140.122 127.471 140.424 126.654 140.69C125.809 140.904 124.967 141.099 124.132 141.271C122.882 141.508 121.374 141.854 119.764 141.961C118.136 142.031 116.466 142 114.996 141.775C113.538 141.594 112.221 141.021 111.342 140.293C110.455 139.554 109.986 138.583 110.069 137.341C110.174 135.681 111.221 134.216 112.318 132.725C112.879 132.009 113.485 131.341 114.083 130.687C114.686 130.044 115.275 129.399 115.757 128.635C117.113 126.588 118.031 124.532 118.718 122.294C119.083 121.214 119.438 120.172 119.848 119.201C120.203 118.145 120.603 117.146 121.13 116.238C121.41 116.955 121.684 117.688 121.932 118.436Z" fill="white"/>
<path d="M130.398 116.364C131.375 118.3 132.033 120.331 131.484 122.574C131.142 123.964 130.418 125.39 129.526 126.613C129.374 126.839 129.216 127.082 129.208 127.326C129.197 127.693 129.545 127.934 129.933 127.958C130.321 127.982 130.739 127.842 131.145 127.707C132.285 127.373 133.301 126.881 134.406 126.492C135.496 126.085 136.608 125.696 137.741 125.326C139.879 124.459 142.108 123.662 144.363 122.9C143.284 123.287 140.841 126.055 139.819 126.898C138.129 128.114 136.353 129.192 134.59 130.091C133.216 130.688 131.134 131.448 129.367 131.667C127.597 131.899 126.019 131.368 125.673 129.9C125.426 128.91 125.766 127.827 126.176 126.733C126.605 125.666 127.194 124.669 127.63 123.653C128.269 122.297 128.413 120.68 128.679 119.255C128.925 117.802 129.218 116.447 129.705 115.051C129.941 115.479 130.176 115.917 130.398 116.364Z" fill="white"/>
<path d="M141.848 76.5194C143.13 76.7873 144.449 77.1469 145.631 77.7296C146.773 78.3168 147.825 79.1233 148.696 80.2676C149.237 80.9778 149.687 81.7913 150.09 82.6566C150.423 83.5222 150.677 84.4389 150.951 85.3598C151.047 85.6874 151.154 86.0354 151.382 86.2419C151.723 86.553 152.23 86.4209 152.562 86.0715C152.893 85.7224 153.091 85.2089 153.285 84.711C153.553 84.0321 153.824 83.3478 154.097 82.6574C154.321 81.9733 154.547 81.2832 154.775 80.587C155.241 79.2014 155.757 77.8019 156.273 76.3921C156.684 74.992 157.126 73.5774 157.595 72.15C157.833 71.4393 158.074 70.7226 158.317 69.9995C158.545 69.2837 158.718 68.5765 158.93 67.8602C158.68 69.2231 159.367 73.907 159.409 75.6015C159.402 76.9268 159.2 78.2545 159.046 79.5488C158.847 80.8448 158.707 82.1145 158.329 83.342C157.736 85.1681 156.928 87.8206 155.583 89.6736C154.189 91.5384 152.566 92.591 150.854 91.6762C149.724 91.0792 148.922 89.8549 148.366 88.5974C147.769 87.3338 147.219 85.9711 146.61 84.7552C146.16 83.9149 145.712 83.1433 145.116 82.414C144.512 81.6848 143.888 80.9984 143.285 80.3252C142.683 79.6516 142.103 78.9915 141.587 78.3104C141.065 77.6301 140.464 76.9474 140.039 76.1967C140.637 76.2907 141.241 76.3944 141.848 76.5194Z" fill="white"/>
<path d="M143.703 69.8058C145.33 69.9678 146.982 70.3473 148.345 71.584C149.146 72.3613 149.665 73.4295 150.233 74.4828C150.332 74.6706 150.441 74.8687 150.606 74.9661C150.853 75.112 151.146 74.9684 151.305 74.7182C151.465 74.4673 151.522 74.1354 151.579 73.8143C151.734 72.9341 151.914 72.051 152.115 71.1648C152.258 70.29 152.389 69.4189 152.562 68.5404C152.73 67.6633 152.919 66.7831 153.128 65.9014C153.235 65.4646 153.342 65.0239 153.452 64.579C153.537 64.1515 153.623 63.7198 153.71 63.2848C153.614 64.0996 154.326 66.7947 154.439 67.7934C154.523 68.5741 154.589 69.3516 154.63 70.1209C154.676 70.8884 154.57 71.6729 154.499 72.4284C154.37 73.5579 154.138 75.2101 153.633 76.471C153.067 77.7437 152.175 78.6164 151.03 78.3168C150.249 78.1241 149.67 77.4866 149.088 76.7941C148.516 76.1003 148.046 75.3182 147.507 74.6294C146.745 73.6822 145.92 72.9034 145.02 72.153C144.095 71.4064 143.222 70.664 142.566 69.7198C142.942 69.7485 143.323 69.7771 143.703 69.8058Z" fill="white"/>
<path d="M135.825 56.0858C137.889 55.6027 140.074 55.3948 142.247 56.4073C143.626 57.0189 144.631 58.1916 145.772 59.2931C145.97 59.4916 146.184 59.7005 146.43 59.7622C146.798 59.8548 147.113 59.5667 147.217 59.1909C147.32 58.816 147.265 58.3742 147.211 57.9463C147.082 56.7821 146.95 55.5983 146.816 54.392C146.629 53.2331 146.466 52.0558 146.325 50.8622C146.111 48.4283 145.665 46.1417 145.412 43.7239C145.533 44.9023 147.92 47.8292 148.365 49.1474C149.186 51.1122 150.031 53.0238 150.348 55.079C150.492 55.8291 150.655 56.7564 150.763 57.7192C150.816 58.2006 150.857 58.6907 150.874 59.1718C150.868 59.663 150.816 60.1554 150.748 60.616C150.469 62.4696 149.719 63.8587 148.132 63.8795C147.087 63.8964 146.027 63.3303 145.128 62.6364C144.276 61.9207 143.306 61.1574 142.389 60.4997C141.74 60.0527 141.068 59.6776 140.395 59.3389L139.387 58.8533L138.308 58.439C136.884 57.8903 135.535 57.3411 134.395 56.4609C134.863 56.3281 135.341 56.1995 135.825 56.0858Z" fill="white"/>
<path d="M134.803 50.3413C136.061 49.9292 137.402 49.6704 138.798 50.1549C139.665 50.4555 140.482 51.0206 141.298 51.5777C141.45 51.6723 141.58 51.7939 141.735 51.8071C141.961 51.8306 142.13 51.6184 142.167 51.3721C142.213 51.1204 142.119 50.87 142.042 50.6186C141.606 49.2505 141.241 47.8436 140.941 46.4069C140.684 44.9333 140.266 43.6168 140.038 42.1756C140.14 42.8849 141.758 44.4481 142.091 45.208C142.697 46.3219 143.253 47.4521 143.689 48.5901C144.047 49.4136 144.405 50.7298 144.423 51.8687C144.455 53.0033 144.164 53.9384 143.199 54.147C142.564 54.2858 141.848 54.0648 141.208 53.7388C140.555 53.4205 140.002 52.9598 139.331 52.6568C137.477 51.8172 135.532 51.6729 133.916 50.6627C134.209 50.5498 134.511 50.435 134.803 50.3413Z" fill="white"/>
<path d="M122.805 41.5404C124.294 40.457 125.916 39.618 127.937 39.7042C129.185 39.7675 130.512 40.1585 131.697 40.7138C131.914 40.8055 132.146 40.8994 132.355 40.8651C132.667 40.8136 132.814 40.4769 132.771 40.143C132.728 39.8098 132.54 39.4785 132.359 39.157C131.363 37.4075 130.256 35.7841 129.302 33.9691C128.326 32.1815 127.248 30.5476 126.313 28.7243C126.766 29.6152 129.534 31.1308 130.336 31.948C131.6 33.2011 132.799 34.4944 133.831 35.8376C135.282 38.014 137.689 42.2102 135.163 43.3984C134.395 43.7583 133.33 43.7456 132.359 43.552C131.383 43.363 130.436 43.0235 129.497 42.8164C128.232 42.4909 126.829 42.617 125.552 42.6167C124.241 42.6614 123.053 42.564 121.777 42.3323C122.111 42.0654 122.453 41.7988 122.805 41.5404Z" fill="white"/>
<path d="M120.072 37.3263C120.938 36.6038 121.915 35.9751 123.168 35.9131C123.945 35.8744 124.767 36.0592 125.585 36.2369C125.73 36.2686 125.886 36.2995 126.013 36.2568C126.205 36.192 126.264 35.9747 126.205 35.7807C126.146 35.5862 125.999 35.4092 125.857 35.2375C124.298 33.3579 122.952 31.2181 121.634 29.236C121.933 29.7594 123.688 30.4674 124.184 30.9593C125.005 31.64 125.794 32.3487 126.494 33.1035C127.601 34.1618 129.313 36.6456 127.937 37.5931C127.489 37.9113 126.862 37.9695 126.256 37.918C125.665 37.8465 125.019 37.7546 124.397 37.7263C122.672 37.6528 121.088 38.157 119.473 37.8574C119.671 37.6731 119.87 37.4927 120.072 37.3263Z" fill="white"/>
<path d="M108.727 33.6075C109.535 32.508 110.537 31.3816 111.981 30.9884C112.875 30.7551 113.882 30.7783 114.885 30.7953C115.064 30.7979 115.254 30.7979 115.392 30.7168C115.6 30.594 115.614 30.3211 115.495 30.1034C115.377 29.8858 115.157 29.7099 114.946 29.5386C112.663 27.5597 110.37 25.7454 108.269 23.5827C108.781 24.1044 111.025 24.6282 111.788 24.9529C112.993 25.4121 114.107 26.104 115.135 26.8399C115.9 27.3872 117.004 28.2194 117.719 29.0968C118.419 30.023 118.703 31.0298 118.025 31.7543C117.57 32.2523 116.867 32.4238 116.121 32.5704C115.377 32.7109 114.608 32.7382 113.876 32.8545C112.867 33.0152 111.933 33.3468 111.016 33.6395C110.1 33.9304 109.157 34.3255 108.176 34.4034L108.727 33.6075Z" fill="white"/>
<path d="M105.738 31.1612C106.21 30.4172 106.766 29.7786 107.648 29.4515C108.195 29.2537 108.823 29.2065 109.443 29.1541C109.554 29.1451 109.671 29.1333 109.751 29.0743C109.871 28.985 109.862 28.8149 109.775 28.6875C109.688 28.5599 109.543 28.4648 109.403 28.3721C108.635 27.8653 107.893 27.3129 107.178 26.7202C106.462 26.1408 105.751 25.6303 105.086 25.0202C105.41 25.3189 106.795 25.4711 107.262 25.6619C107.989 25.9691 108.701 26.3034 109.363 26.6913C110.358 27.2706 112.205 28.453 111.459 29.4899C111.218 29.8326 110.78 30.0475 110.329 30.181C109.878 30.314 109.4 30.3774 108.949 30.4933C107.699 30.8307 106.681 31.4948 105.421 31.6841L105.738 31.1612Z" fill="white"/>
<path d="M96.821 29.2179C97.129 28.5139 97.53 27.8303 98.2682 27.3936C98.7265 27.1224 99.2802 26.9693 99.8261 26.8136C99.9232 26.7859 100.026 26.7546 100.088 26.6886C100.181 26.5893 100.144 26.4417 100.046 26.3456C99.9488 26.2492 99.8038 26.1915 99.6641 26.1353C98.1326 25.52 96.6667 24.7251 95.3053 23.7883C95.6366 24.0162 96.8875 24.0488 97.3319 24.1392C98.0253 24.2796 98.7104 24.4468 99.3604 24.6692C99.844 24.8342 100.552 25.0948 101.071 25.4436C101.589 25.8222 101.912 26.3129 101.674 26.8106C101.516 27.1507 101.166 27.3565 100.784 27.5556C100.403 27.7524 99.9855 27.8929 99.5999 28.0749C98.5345 28.5766 97.7227 29.3938 96.6165 29.714L96.821 29.2179Z" fill="white"/>
<path d="M72.6428 149.817C72.7826 149.818 72.9255 149.803 73.0568 149.783C83.3425 148.204 93.5521 145.789 103.367 142.31C113.438 138.74 123.406 134.002 131.564 126.994C132.642 126.067 133.688 125.102 134.686 124.09C143.198 115.481 147.391 106.045 147.391 106.045C149.002 102.421 151.843 95.0064 152.23 85.1623C152.512 77.989 151.461 70.7584 149.079 63.9821C146.708 57.2036 143.027 50.8936 138.315 45.4849C128.93 34.6147 115.304 27.5475 101.013 26.175C100.794 26.164 100.604 26.2954 100.589 26.4683C100.574 26.6404 100.736 26.7887 100.951 26.8001C115.077 28.2218 128.493 35.2657 137.695 46.0217C142.315 51.3736 145.912 57.6042 148.216 64.2832C150.528 70.9603 151.528 78.0733 151.22 85.1199C150.924 92.1685 149.281 99.1613 146.383 105.593C142.354 114.533 137.037 120.032 134.301 122.804C130.004 127.158 125.065 130.851 119.727 133.834C108.02 140.377 94.5813 144.031 81.5282 146.775C78.732 147.363 75.9231 147.889 73.104 148.354C72.7883 148.406 72.4588 148.464 72.2014 148.654C71.9435 148.844 71.7866 149.211 71.9382 149.494C72.0703 149.74 72.3495 149.814 72.6428 149.817Z" fill="white"/>
</svg>
